<svg width="50" height="11" viewBox="0 0 50 11" fill="none" xmlns="http://www.w3.org/2000/svg">
<path d="M9.38907 0.242L5.70707 10H4.23707L0.55507 0.242H1.91307L4.97907 8.656L8.04507 0.242H9.38907ZM18.554 7.83H14.298L13.514 10H12.17L15.698 0.298H17.168L20.682 10H19.338L18.554 7.83ZM18.19 6.794L16.426 1.866L14.662 6.794H18.19ZM27.3136 10.098C26.6696 10.098 26.0909 9.986 25.5776 9.762C25.0736 9.52867 24.6769 9.21133 24.3876 8.81C24.0983 8.39933 23.9489 7.928 23.9396 7.396H25.2976C25.3443 7.85333 25.5309 8.24067 25.8576 8.558C26.1936 8.866 26.6789 9.02 27.3136 9.02C27.9203 9.02 28.3963 8.87067 28.7416 8.572C29.0963 8.264 29.2736 7.872 29.2736 7.396C29.2736 7.02267 29.1709 6.71933 28.9656 6.486C28.7603 6.25267 28.5036 6.07533 28.1956 5.954C27.8876 5.83267 27.4723 5.702 26.9496 5.562C26.3056 5.394 25.7876 5.226 25.3956 5.058C25.0129 4.89 24.6816 4.62867 24.4016 4.274C24.1309 3.91 23.9956 3.42467 23.9956 2.818C23.9956 2.286 24.1309 1.81467 24.4016 1.404C24.6723 0.993333 25.0503 0.675999 25.5356 0.451999C26.0303 0.228 26.5949 0.116 27.2296 0.116C28.1443 0.116 28.8909 0.344666 29.4696 0.802C30.0576 1.25933 30.3889 1.866 30.4636 2.622H29.0636C29.0169 2.24867 28.8209 1.922 28.4756 1.642C28.1303 1.35267 27.6729 1.208 27.1036 1.208C26.5716 1.208 26.1376 1.348 25.8016 1.628C25.4656 1.89867 25.2976 2.28133 25.2976 2.776C25.2976 3.13067 25.3956 3.42 25.5916 3.644C25.7969 3.868 26.0443 4.04067 26.3336 4.162C26.6323 4.274 27.0476 4.40467 27.5796 4.554C28.2236 4.73133 28.7416 4.90867 29.1336 5.086C29.5256 5.254 29.8616 5.52 30.1416 5.884C30.4216 6.23867 30.5616 6.724 30.5616 7.34C30.5616 7.816 30.4356 8.264 30.1836 8.684C29.9316 9.104 29.5583 9.44467 29.0636 9.706C28.5689 9.96733 27.9856 10.098 27.3136 10.098ZM35.7104 1.278V4.54H39.2664V5.59H35.7104V8.95H39.6864V10H34.4364V0.228H39.6864V1.278H35.7104ZM46.7081 10.098C46.0641 10.098 45.4855 9.986 44.9721 9.762C44.4681 9.52867 44.0715 9.21133 43.7821 8.81C43.4928 8.39933 43.3435 7.928 43.3341 7.396H44.6921C44.7388 7.85333 44.9255 8.24067 45.2521 8.558C45.5881 8.866 46.0735 9.02 46.7081 9.02C47.3148 9.02 47.7908 8.87067 48.1361 8.572C48.4908 8.264 48.6681 7.872 48.6681 7.396C48.6681 7.02267 48.5655 6.71933 48.3601 6.486C48.1548 6.25267 47.8981 6.07533 47.5901 5.954C47.2821 5.83267 46.8668 5.702 46.3441 5.562C45.7001 5.394 45.1821 5.226 44.7901 5.058C44.4075 4.89 44.0761 4.62867 43.7961 4.274C43.5255 3.91 43.3901 3.42467 43.3901 2.818C43.3901 2.286 43.5255 1.81467 43.7961 1.404C44.0668 0.993333 44.4448 0.675999 44.9301 0.451999C45.4248 0.228 45.9895 0.116 46.6241 0.116C47.5388 0.116 48.2855 0.344666 48.8641 0.802C49.4521 1.25933 49.7835 1.866 49.8581 2.622H48.4581C48.4115 2.24867 48.2155 1.922 47.8701 1.642C47.5248 1.35267 47.0675 1.208 46.4981 1.208C45.9661 1.208 45.5321 1.348 45.1961 1.628C44.8601 1.89867 44.6921 2.28133 44.6921 2.776C44.6921 3.13067 44.7901 3.42 44.9861 3.644C45.1915 3.868 45.4388 4.04067 45.7281 4.162C46.0268 4.274 46.4421 4.40467 46.9741 4.554C47.6181 4.73133 48.1361 4.90867 48.5281 5.086C48.9201 5.254 49.2561 5.52 49.5361 5.884C49.8161 6.23867 49.9561 6.724 49.9561 7.34C49.9561 7.816 49.8301 8.264 49.5781 8.684C49.3261 9.104 48.9528 9.44467 48.4581 9.706C47.9635 9.96733 47.3801 10.098 46.7081 10.098Z" fill="white"/>
</svg>
