<svg width="46" height="11" viewBox="0 0 46 11" fill="none" xmlns="http://www.w3.org/2000/svg">
<path d="M10.6664 0.312V10H9.39243V2.776L6.17243 10H5.27643L2.04243 2.762V10H0.76843V0.312H2.14043L5.72443 8.32L9.30843 0.312H10.6664ZM16.073 0.242V6.416C16.073 7.284 16.283 7.928 16.703 8.348C17.1324 8.768 17.725 8.978 18.481 8.978C19.2277 8.978 19.811 8.768 20.231 8.348C20.6604 7.928 20.875 7.284 20.875 6.416V0.242H22.149V6.402C22.149 7.214 21.9857 7.9 21.659 8.46C21.3324 9.01067 20.889 9.42133 20.329 9.692C19.7784 9.96267 19.1577 10.098 18.467 10.098C17.7764 10.098 17.151 9.96267 16.591 9.692C16.0404 9.42133 15.6017 9.01067 15.275 8.46C14.9577 7.9 14.799 7.214 14.799 6.402V0.242H16.073ZM33.6663 3.07C33.3956 2.50067 33.0036 2.062 32.4903 1.754C31.977 1.43667 31.3796 1.278 30.6983 1.278C30.017 1.278 29.401 1.43667 28.8503 1.754C28.309 2.062 27.8796 2.51 27.5623 3.098C27.2543 3.67667 27.1003 4.34867 27.1003 5.114C27.1003 5.87933 27.2543 6.55133 27.5623 7.13C27.8796 7.70867 28.309 8.15667 28.8503 8.474C29.401 8.782 30.017 8.936 30.6983 8.936C31.6503 8.936 32.4343 8.65133 33.0503 8.082C33.6663 7.51267 34.0256 6.74267 34.1283 5.772H30.2363V4.736H35.4863V5.716C35.4116 6.51867 35.1596 7.256 34.7303 7.928C34.301 8.59067 33.7363 9.118 33.0363 9.51C32.3363 9.89267 31.557 10.084 30.6983 10.084C29.793 10.084 28.967 9.874 28.2203 9.454C27.4736 9.02467 26.881 8.432 26.4423 7.676C26.013 6.92 25.7983 6.066 25.7983 5.114C25.7983 4.162 26.013 3.308 26.4423 2.552C26.881 1.78667 27.4736 1.194 28.2203 0.773999C28.967 0.344666 29.793 0.129999 30.6983 0.129999C31.7343 0.129999 32.649 0.386666 33.4423 0.899999C34.245 1.41333 34.8283 2.13667 35.1923 3.07H33.6663ZM42.2648 10.098C41.6208 10.098 41.0421 9.986 40.5288 9.762C40.0248 9.52867 39.6281 9.21133 39.3388 8.81C39.0494 8.39933 38.9001 7.928 38.8908 7.396H40.2488C40.2954 7.85333 40.4821 8.24067 40.8088 8.558C41.1448 8.866 41.6301 9.02 42.2648 9.02C42.8714 9.02 43.3474 8.87067 43.6928 8.572C44.0474 8.264 44.2248 7.872 44.2248 7.396C44.2248 7.02267 44.1221 6.71933 43.9168 6.486C43.7114 6.25267 43.4548 6.07533 43.1468 5.954C42.8388 5.83267 42.4234 5.702 41.9008 5.562C41.2568 5.394 40.7388 5.226 40.3468 5.058C39.9641 4.89 39.6328 4.62867 39.3528 4.274C39.0821 3.91 38.9468 3.42467 38.9468 2.818C38.9468 2.286 39.0821 1.81467 39.3528 1.404C39.6234 0.993333 40.0014 0.675999 40.4868 0.451999C40.9814 0.228 41.5461 0.116 42.1808 0.116C43.0954 0.116 43.8421 0.344666 44.4208 0.802C45.0088 1.25933 45.3401 1.866 45.4148 2.622H44.0148C43.9681 2.24867 43.7721 1.922 43.4268 1.642C43.0814 1.35267 42.6241 1.208 42.0548 1.208C41.5228 1.208 41.0888 1.348 40.7528 1.628C40.4168 1.89867 40.2488 2.28133 40.2488 2.776C40.2488 3.13067 40.3468 3.42 40.5428 3.644C40.7481 3.868 40.9954 4.04067 41.2848 4.162C41.5834 4.274 41.9988 4.40467 42.5308 4.554C43.1748 4.73133 43.6928 4.90867 44.0848 5.086C44.4768 5.254 44.8128 5.52 45.0928 5.884C45.3728 6.23867 45.5128 6.724 45.5128 7.34C45.5128 7.816 45.3868 8.264 45.1348 8.684C44.8828 9.104 44.5094 9.44467 44.0148 9.706C43.5201 9.96733 42.9368 10.098 42.2648 10.098Z" fill="white"/>
</svg>
