<svg width="55" height="11" viewBox="0 0 55 11" fill="none" xmlns="http://www.w3.org/2000/svg">
<path d="M6.82563 3.098C6.82563 3.91 6.54563 4.58667 5.98563 5.128C5.43497 5.66 4.5903 5.926 3.45163 5.926H1.57563V10H0.301633V0.242H3.45163C4.55297 0.242 5.3883 0.508 5.95763 1.04C6.5363 1.572 6.82563 2.258 6.82563 3.098ZM3.45163 4.876C4.16097 4.876 4.68363 4.722 5.01963 4.414C5.35563 4.106 5.52363 3.66733 5.52363 3.098C5.52363 1.894 4.83297 1.292 3.45163 1.292H1.57563V4.876H3.45163ZM11.6831 8.964H15.0991V10H10.4091V0.242H11.6831V8.964ZM24.22 7.83H19.964L19.18 10H17.836L21.364 0.298H22.834L26.348 10H25.004L24.22 7.83ZM23.856 6.794L22.092 1.866L20.328 6.794H23.856ZM35.8916 0.242V1.278H33.2316V10H31.9576V1.278H29.2836V0.242H35.8916ZM40.7338 1.278V4.54H44.2898V5.59H40.7338V8.95H44.7098V10H39.4598V0.228H44.7098V1.278H40.7338ZM51.7316 10.098C51.0876 10.098 50.5089 9.986 49.9956 9.762C49.4916 9.52867 49.0949 9.21133 48.8056 8.81C48.5162 8.39933 48.3669 7.928 48.3576 7.396H49.7156C49.7622 7.85333 49.9489 8.24067 50.2756 8.558C50.6116 8.866 51.0969 9.02 51.7316 9.02C52.3382 9.02 52.8142 8.87067 53.1596 8.572C53.5142 8.264 53.6916 7.872 53.6916 7.396C53.6916 7.02267 53.5889 6.71933 53.3836 6.486C53.1782 6.25267 52.9216 6.07533 52.6136 5.954C52.3056 5.83267 51.8902 5.702 51.3676 5.562C50.7236 5.394 50.2056 5.226 49.8136 5.058C49.4309 4.89 49.0996 4.62867 48.8196 4.274C48.5489 3.91 48.4136 3.42467 48.4136 2.818C48.4136 2.286 48.5489 1.81467 48.8196 1.404C49.0902 0.993333 49.4682 0.675999 49.9536 0.451999C50.4482 0.228 51.0129 0.116 51.6476 0.116C52.5622 0.116 53.3089 0.344666 53.8876 0.802C54.4756 1.25933 54.8069 1.866 54.8816 2.622H53.4816C53.4349 2.24867 53.2389 1.922 52.8936 1.642C52.5482 1.35267 52.0909 1.208 51.5216 1.208C50.9896 1.208 50.5556 1.348 50.2196 1.628C49.8836 1.89867 49.7156 2.28133 49.7156 2.776C49.7156 3.13067 49.8136 3.42 50.0096 3.644C50.2149 3.868 50.4622 4.04067 50.7516 4.162C51.0502 4.274 51.4656 4.40467 51.9976 4.554C52.6416 4.73133 53.1596 4.90867 53.5516 5.086C53.9436 5.254 54.2796 5.52 54.5596 5.884C54.8396 6.23867 54.9796 6.724 54.9796 7.34C54.9796 7.816 54.8536 8.264 54.6016 8.684C54.3496 9.104 53.9762 9.44467 53.4816 9.706C52.9869 9.96733 52.4036 10.098 51.7316 10.098Z" fill="white"/>
</svg>
