<svg width="33" height="11" viewBox="0 0 33 11" fill="none" xmlns="http://www.w3.org/2000/svg">
<path d="M0.046793 5.463C0.046793 4.579 0.246126 3.786 0.644793 3.084C1.04346 2.37333 1.58513 1.81867 2.26979 1.42C2.96313 1.02133 3.73013 0.822 4.57079 0.822C5.55879 0.822 6.42113 1.06033 7.15779 1.537C7.89446 2.01367 8.43179 2.68967 8.76979 3.565H7.35279C7.10146 3.019 6.73746 2.59867 6.26079 2.304C5.79279 2.00933 5.22946 1.862 4.57079 1.862C3.93813 1.862 3.37046 2.00933 2.86779 2.304C2.36513 2.59867 1.97079 3.019 1.68479 3.565C1.39879 4.10233 1.25579 4.735 1.25579 5.463C1.25579 6.18233 1.39879 6.815 1.68479 7.361C1.97079 7.89833 2.36513 8.31433 2.86779 8.609C3.37046 8.90367 3.93813 9.051 4.57079 9.051C5.22946 9.051 5.79279 8.908 6.26079 8.622C6.73746 8.32733 7.10146 7.907 7.35279 7.361H8.76979C8.43179 8.22767 7.89446 8.89933 7.15779 9.376C6.42113 9.844 5.55879 10.078 4.57079 10.078C3.73013 10.078 2.96313 9.883 2.26979 9.493C1.58513 9.09433 1.04346 8.544 0.644793 7.842C0.246126 7.14 0.046793 6.347 0.046793 5.463ZM16.8868 7.985H12.9348L12.2068 10H10.9588L14.2348 0.991H15.5998L18.8628 10H17.6148L16.8868 7.985ZM16.5488 7.023L14.9108 2.447L13.2728 7.023H16.5488ZM22.4736 9.038H25.6456V10H21.2906V0.939H22.4736V9.038ZM29.0849 9.038H32.2569V10H27.9019V0.939H29.0849V9.038Z" fill="black"/>
</svg>
