<svg width="39" height="10" viewBox="0 0 39 10" fill="none" xmlns="http://www.w3.org/2000/svg">
<path d="M1.96769 1.901V4.93H5.26969V5.905H1.96769V9.025H5.65969V10H0.784691V0.926H5.65969V1.901H1.96769ZM17.6407 1.004V10H16.4577V3.292L13.4677 10H12.6357L9.63273 3.279V10H8.44973V1.004H9.72373L13.0517 8.44L16.3797 1.004H17.6407ZM26.003 7.985H22.051L21.323 10H20.075L23.351 0.991H24.716L27.979 10H26.731L26.003 7.985ZM25.665 7.023L24.027 2.447L22.389 7.023H25.665ZM31.5898 0.939V10H30.4068V0.939H31.5898ZM35.789 9.038H38.961V10H34.606V0.939H35.789V9.038Z" fill="black"/>
</svg>
