<svg width="31" height="10" viewBox="0 0 31 10" fill="none" xmlns="http://www.w3.org/2000/svg">
<path d="M6.08198 0.939V1.901H2.14298V4.956H5.34098V5.918H2.14298V10H0.959984V0.939H6.08198ZM9.69377 0.939V10H8.51077V0.939H9.69377ZM19.834 10H18.651L13.893 2.785V10H12.71V0.926H13.893L18.651 8.128V0.926H19.834V10ZM25.6716 0.939C26.6596 0.939 27.5133 1.12533 28.2326 1.498C28.9606 1.862 29.5153 2.38633 29.8966 3.071C30.2866 3.75567 30.4816 4.56167 30.4816 5.489C30.4816 6.41633 30.2866 7.22233 29.8966 7.907C29.5153 8.583 28.9606 9.103 28.2326 9.467C27.5133 9.82233 26.6596 10 25.6716 10H22.8506V0.939H25.6716ZM25.6716 9.025C26.8416 9.025 27.7343 8.71733 28.3496 8.102C28.9649 7.478 29.2726 6.607 29.2726 5.489C29.2726 4.36233 28.9606 3.48267 28.3366 2.85C27.7213 2.21733 26.8329 1.901 25.6716 1.901H24.0336V9.025H25.6716Z" fill="black"/>
</svg>
