<svg width="82" height="14" viewBox="0 0 82 14" fill="none" xmlns="http://www.w3.org/2000/svg">
<path d="M7.378 9.326C7.378 9.774 7.266 10.2033 7.042 10.614C6.818 11.0153 6.48667 11.3513 6.048 11.622C5.61867 11.8927 5.10067 12.0467 4.494 12.084V13.218H3.738V12.084C2.88867 12.0093 2.198 11.7387 1.666 11.272C1.134 10.796 0.863333 10.194 0.854 9.466H2.212C2.24933 9.858 2.394 10.1987 2.646 10.488C2.90733 10.7773 3.27133 10.9593 3.738 11.034V7.534C3.11267 7.37533 2.60867 7.212 2.226 7.044C1.84333 6.876 1.51667 6.61467 1.246 6.26C0.975333 5.90533 0.84 5.42933 0.84 4.832C0.84 4.076 1.10133 3.45067 1.624 2.956C2.156 2.46133 2.86067 2.186 3.738 2.13V0.967999H4.494V2.13C5.28733 2.19533 5.92667 2.452 6.412 2.9C6.89733 3.33867 7.17733 3.91267 7.252 4.622H5.894C5.84733 4.29533 5.70267 4.00133 5.46 3.74C5.21733 3.46933 4.89533 3.292 4.494 3.208V6.624C5.11 6.78267 5.60933 6.946 5.992 7.114C6.384 7.27267 6.71067 7.52933 6.972 7.884C7.24267 8.23867 7.378 8.71933 7.378 9.326ZM2.142 4.762C2.142 5.21933 2.27733 5.56933 2.548 5.812C2.81867 6.05467 3.21533 6.25533 3.738 6.414V3.18C3.25267 3.22667 2.86533 3.38533 2.576 3.656C2.28667 3.91733 2.142 4.286 2.142 4.762ZM4.494 11.048C4.998 10.992 5.39 10.81 5.67 10.502C5.95933 10.194 6.104 9.82533 6.104 9.396C6.104 8.93867 5.964 8.58867 5.684 8.346C5.404 8.094 5.00733 7.89333 4.494 7.744V11.048ZM12.9734 3.04V1.878H15.6054V12H14.3174V3.04H12.9734ZM17.4578 3.04V1.878H20.0898V12H18.8018V3.04H17.4578ZM28.7322 2.984H23.8182V6.176C24.0328 5.87733 24.3502 5.63467 24.7702 5.448C25.1902 5.252 25.6428 5.154 26.1282 5.154C26.9028 5.154 27.5328 5.31733 28.0182 5.644C28.5035 5.96133 28.8488 6.37667 29.0542 6.89C29.2688 7.394 29.3762 7.93067 29.3762 8.5C29.3762 9.172 29.2502 9.774 28.9982 10.306C28.7462 10.838 28.3588 11.258 27.8362 11.566C27.3228 11.874 26.6835 12.028 25.9182 12.028C24.9382 12.028 24.1448 11.776 23.5382 11.272C22.9315 10.768 22.5628 10.096 22.4322 9.256H23.6782C23.7995 9.788 24.0562 10.2033 24.4482 10.502C24.8402 10.8007 25.3348 10.95 25.9322 10.95C26.6695 10.95 27.2248 10.7307 27.5982 10.292C27.9715 9.844 28.1582 9.256 28.1582 8.528C28.1582 7.8 27.9715 7.24 27.5982 6.848C27.2248 6.44667 26.6742 6.246 25.9462 6.246C25.4515 6.246 25.0175 6.36733 24.6442 6.61C24.2802 6.84333 24.0142 7.16533 23.8462 7.576H22.6422V1.864H28.7322V2.984ZM31.6852 12.084C31.4425 12.084 31.2372 12 31.0692 11.832C30.9012 11.664 30.8172 11.4587 30.8172 11.216C30.8172 10.9733 30.9012 10.768 31.0692 10.6C31.2372 10.432 31.4425 10.348 31.6852 10.348C31.9185 10.348 32.1145 10.432 32.2732 10.6C32.4412 10.768 32.5252 10.9733 32.5252 11.216C32.5252 11.4587 32.4412 11.664 32.2732 11.832C32.1145 12 31.9185 12.084 31.6852 12.084ZM34.0086 6.834C34.0086 5.22867 34.27 3.978 34.7926 3.082C35.3153 2.17667 36.23 1.724 37.5366 1.724C38.834 1.724 39.744 2.17667 40.2666 3.082C40.7893 3.978 41.0506 5.22867 41.0506 6.834C41.0506 8.46733 40.7893 9.73667 40.2666 10.642C39.744 11.5473 38.834 12 37.5366 12C36.23 12 35.3153 11.5473 34.7926 10.642C34.27 9.73667 34.0086 8.46733 34.0086 6.834ZM39.7906 6.834C39.7906 6.022 39.7346 5.336 39.6226 4.776C39.52 4.20667 39.3006 3.74933 38.9646 3.404C38.638 3.05867 38.162 2.886 37.5366 2.886C36.902 2.886 36.4166 3.05867 36.0806 3.404C35.754 3.74933 35.5346 4.20667 35.4226 4.776C35.32 5.336 35.2686 6.022 35.2686 6.834C35.2686 7.674 35.32 8.37867 35.4226 8.948C35.5346 9.51733 35.754 9.97467 36.0806 10.32C36.4166 10.6653 36.902 10.838 37.5366 10.838C38.162 10.838 38.638 10.6653 38.9646 10.32C39.3006 9.97467 39.52 9.51733 39.6226 8.948C39.7346 8.37867 39.7906 7.674 39.7906 6.834ZM42.7996 6.834C42.7996 5.22867 43.061 3.978 43.5836 3.082C44.1063 2.17667 45.021 1.724 46.3276 1.724C47.625 1.724 48.535 2.17667 49.0576 3.082C49.5803 3.978 49.8416 5.22867 49.8416 6.834C49.8416 8.46733 49.5803 9.73667 49.0576 10.642C48.535 11.5473 47.625 12 46.3276 12C45.021 12 44.1063 11.5473 43.5836 10.642C43.061 9.73667 42.7996 8.46733 42.7996 6.834ZM48.5816 6.834C48.5816 6.022 48.5256 5.336 48.4136 4.776C48.311 4.20667 48.0916 3.74933 47.7556 3.404C47.429 3.05867 46.953 2.886 46.3276 2.886C45.693 2.886 45.2076 3.05867 44.8716 3.404C44.545 3.74933 44.3256 4.20667 44.2136 4.776C44.111 5.336 44.0596 6.022 44.0596 6.834C44.0596 7.674 44.111 8.37867 44.2136 8.948C44.3256 9.51733 44.545 9.97467 44.8716 10.32C45.2076 10.6653 45.693 10.838 46.3276 10.838C46.953 10.838 47.429 10.6653 47.7556 10.32C48.0916 9.97467 48.311 9.51733 48.4136 8.948C48.5256 8.37867 48.5816 7.674 48.5816 6.834ZM56.7791 2.242V8.416C56.7791 9.284 56.9891 9.928 57.4091 10.348C57.8384 10.768 58.4311 10.978 59.1871 10.978C59.9337 10.978 60.5171 10.768 60.9371 10.348C61.3664 9.928 61.5811 9.284 61.5811 8.416V2.242H62.8551V8.402C62.8551 9.214 62.6917 9.9 62.3651 10.46C62.0384 11.0107 61.5951 11.4213 61.0351 11.692C60.4844 11.9627 59.8637 12.098 59.1731 12.098C58.4824 12.098 57.8571 11.9627 57.2971 11.692C56.7464 11.4213 56.3077 11.0107 55.9811 10.46C55.6637 9.9 55.5051 9.214 55.5051 8.402V2.242H56.7791ZM68.0743 12.098C67.4303 12.098 66.8517 11.986 66.3383 11.762C65.8343 11.5287 65.4377 11.2113 65.1483 10.81C64.859 10.3993 64.7097 9.928 64.7003 9.396H66.0583C66.105 9.85333 66.2917 10.2407 66.6183 10.558C66.9543 10.866 67.4397 11.02 68.0743 11.02C68.681 11.02 69.157 10.8707 69.5023 10.572C69.857 10.264 70.0343 9.872 70.0343 9.396C70.0343 9.02267 69.9317 8.71933 69.7263 8.486C69.521 8.25267 69.2643 8.07533 68.9563 7.954C68.6483 7.83267 68.233 7.702 67.7103 7.562C67.0663 7.394 66.5483 7.226 66.1563 7.058C65.7737 6.89 65.4423 6.62867 65.1623 6.274C64.8917 5.91 64.7563 5.42467 64.7563 4.818C64.7563 4.286 64.8917 3.81467 65.1623 3.404C65.433 2.99333 65.811 2.676 66.2963 2.452C66.791 2.228 67.3557 2.116 67.9903 2.116C68.905 2.116 69.6517 2.34467 70.2303 2.802C70.8183 3.25933 71.1497 3.866 71.2243 4.622H69.8243C69.7777 4.24867 69.5817 3.922 69.2363 3.642C68.891 3.35267 68.4337 3.208 67.8643 3.208C67.3323 3.208 66.8983 3.348 66.5623 3.628C66.2263 3.89867 66.0583 4.28133 66.0583 4.776C66.0583 5.13067 66.1563 5.42 66.3523 5.644C66.5577 5.868 66.805 6.04067 67.0943 6.162C67.393 6.274 67.8083 6.40467 68.3403 6.554C68.9843 6.73133 69.5023 6.90867 69.8943 7.086C70.2863 7.254 70.6223 7.52 70.9023 7.884C71.1823 8.23867 71.3223 8.724 71.3223 9.34C71.3223 9.816 71.1963 10.264 70.9443 10.684C70.6923 11.104 70.319 11.4447 69.8243 11.706C69.3297 11.9673 68.7463 12.098 68.0743 12.098ZM76.2351 2.242C77.2991 2.242 78.2185 2.44267 78.9931 2.844C79.7771 3.236 80.3745 3.80067 80.7851 4.538C81.2051 5.27533 81.4151 6.14333 81.4151 7.142C81.4151 8.14067 81.2051 9.00867 80.7851 9.746C80.3745 10.474 79.7771 11.034 78.9931 11.426C78.2185 11.8087 77.2991 12 76.2351 12H73.1971V2.242H76.2351ZM76.2351 10.95C77.4951 10.95 78.4565 10.6187 79.1191 9.956C79.7818 9.284 80.1131 8.346 80.1131 7.142C80.1131 5.92867 79.7771 4.98133 79.1051 4.3C78.4425 3.61867 77.4858 3.278 76.2351 3.278H74.4711V10.95H76.2351Z" fill="black"/>
</svg>
