<svg width="85" height="14" viewBox="0 0 85 14" fill="none" xmlns="http://www.w3.org/2000/svg">
<path d="M7.378 9.326C7.378 9.774 7.266 10.2033 7.042 10.614C6.818 11.0153 6.48667 11.3513 6.048 11.622C5.61867 11.8927 5.10067 12.0467 4.494 12.084V13.218H3.738V12.084C2.88867 12.0093 2.198 11.7387 1.666 11.272C1.134 10.796 0.863333 10.194 0.854 9.466H2.212C2.24933 9.858 2.394 10.1987 2.646 10.488C2.90733 10.7773 3.27133 10.9593 3.738 11.034V7.534C3.11267 7.37533 2.60867 7.212 2.226 7.044C1.84333 6.876 1.51667 6.61467 1.246 6.26C0.975333 5.90533 0.84 5.42933 0.84 4.832C0.84 4.076 1.10133 3.45067 1.624 2.956C2.156 2.46133 2.86067 2.186 3.738 2.13V0.967999H4.494V2.13C5.28733 2.19533 5.92667 2.452 6.412 2.9C6.89733 3.33867 7.17733 3.91267 7.252 4.622H5.894C5.84733 4.29533 5.70267 4.00133 5.46 3.74C5.21733 3.46933 4.89533 3.292 4.494 3.208V6.624C5.11 6.78267 5.60933 6.946 5.992 7.114C6.384 7.27267 6.71067 7.52933 6.972 7.884C7.24267 8.23867 7.378 8.71933 7.378 9.326ZM2.142 4.762C2.142 5.21933 2.27733 5.56933 2.548 5.812C2.81867 6.05467 3.21533 6.25533 3.738 6.414V3.18C3.25267 3.22667 2.86533 3.38533 2.576 3.656C2.28667 3.91733 2.142 4.286 2.142 4.762ZM4.494 11.048C4.998 10.992 5.39 10.81 5.67 10.502C5.95933 10.194 6.104 9.82533 6.104 9.396C6.104 8.93867 5.964 8.58867 5.684 8.346C5.404 8.094 5.00733 7.89333 4.494 7.744V11.048ZM12.9734 3.04V1.878H15.6054V12H14.3174V3.04H12.9734ZM17.6398 10.978C18.8251 10.026 19.7538 9.24667 20.4258 8.64C21.0978 8.024 21.6624 7.38467 22.1198 6.722C22.5864 6.05 22.8198 5.392 22.8198 4.748C22.8198 4.14133 22.6704 3.66533 22.3718 3.32C22.0824 2.96533 21.6111 2.788 20.9578 2.788C20.3231 2.788 19.8284 2.98867 19.4738 3.39C19.1284 3.782 18.9418 4.30933 18.9138 4.972H17.6818C17.7191 3.92667 18.0364 3.11933 18.6338 2.55C19.2311 1.98067 20.0011 1.696 20.9438 1.696C21.9051 1.696 22.6658 1.962 23.2258 2.494C23.7951 3.026 24.0798 3.75867 24.0798 4.692C24.0798 5.46667 23.8464 6.22267 23.3798 6.96C22.9224 7.688 22.3998 8.332 21.8118 8.892C21.2238 9.44267 20.4724 10.0867 19.5578 10.824H24.3738V11.888H17.6398V10.978ZM32.3005 2.984H27.3865V6.176C27.6012 5.87733 27.9185 5.63467 28.3385 5.448C28.7585 5.252 29.2112 5.154 29.6965 5.154C30.4712 5.154 31.1012 5.31733 31.5865 5.644C32.0718 5.96133 32.4172 6.37667 32.6225 6.89C32.8372 7.394 32.9445 7.93067 32.9445 8.5C32.9445 9.172 32.8185 9.774 32.5665 10.306C32.3145 10.838 31.9272 11.258 31.4045 11.566C30.8912 11.874 30.2518 12.028 29.4865 12.028C28.5065 12.028 27.7132 11.776 27.1065 11.272C26.4998 10.768 26.1312 10.096 26.0005 9.256H27.2465C27.3678 9.788 27.6245 10.2033 28.0165 10.502C28.4085 10.8007 28.9032 10.95 29.5005 10.95C30.2378 10.95 30.7932 10.7307 31.1665 10.292C31.5398 9.844 31.7265 9.256 31.7265 8.528C31.7265 7.8 31.5398 7.24 31.1665 6.848C30.7932 6.44667 30.2425 6.246 29.5145 6.246C29.0198 6.246 28.5858 6.36733 28.2125 6.61C27.8485 6.84333 27.5825 7.16533 27.4145 7.576H26.2105V1.864H32.3005V2.984ZM35.2535 12.084C35.0109 12.084 34.8055 12 34.6375 11.832C34.4695 11.664 34.3855 11.4587 34.3855 11.216C34.3855 10.9733 34.4695 10.768 34.6375 10.6C34.8055 10.432 35.0109 10.348 35.2535 10.348C35.4869 10.348 35.6829 10.432 35.8415 10.6C36.0095 10.768 36.0935 10.9733 36.0935 11.216C36.0935 11.4587 36.0095 11.664 35.8415 11.832C35.6829 12 35.4869 12.084 35.2535 12.084ZM37.577 6.834C37.577 5.22867 37.8383 3.978 38.361 3.082C38.8837 2.17667 39.7983 1.724 41.105 1.724C42.4023 1.724 43.3123 2.17667 43.835 3.082C44.3577 3.978 44.619 5.22867 44.619 6.834C44.619 8.46733 44.3577 9.73667 43.835 10.642C43.3123 11.5473 42.4023 12 41.105 12C39.7983 12 38.8837 11.5473 38.361 10.642C37.8383 9.73667 37.577 8.46733 37.577 6.834ZM43.359 6.834C43.359 6.022 43.303 5.336 43.191 4.776C43.0883 4.20667 42.869 3.74933 42.533 3.404C42.2063 3.05867 41.7303 2.886 41.105 2.886C40.4703 2.886 39.985 3.05867 39.649 3.404C39.3223 3.74933 39.103 4.20667 38.991 4.776C38.8883 5.336 38.837 6.022 38.837 6.834C38.837 7.674 38.8883 8.37867 38.991 8.948C39.103 9.51733 39.3223 9.97467 39.649 10.32C39.985 10.6653 40.4703 10.838 41.105 10.838C41.7303 10.838 42.2063 10.6653 42.533 10.32C42.869 9.97467 43.0883 9.51733 43.191 8.948C43.303 8.37867 43.359 7.674 43.359 6.834ZM46.368 6.834C46.368 5.22867 46.6293 3.978 47.152 3.082C47.6747 2.17667 48.5893 1.724 49.896 1.724C51.1933 1.724 52.1033 2.17667 52.626 3.082C53.1487 3.978 53.41 5.22867 53.41 6.834C53.41 8.46733 53.1487 9.73667 52.626 10.642C52.1033 11.5473 51.1933 12 49.896 12C48.5893 12 47.6747 11.5473 47.152 10.642C46.6293 9.73667 46.368 8.46733 46.368 6.834ZM52.15 6.834C52.15 6.022 52.094 5.336 51.982 4.776C51.8793 4.20667 51.66 3.74933 51.324 3.404C50.9973 3.05867 50.5213 2.886 49.896 2.886C49.2613 2.886 48.776 3.05867 48.44 3.404C48.1133 3.74933 47.894 4.20667 47.782 4.776C47.6793 5.336 47.628 6.022 47.628 6.834C47.628 7.674 47.6793 8.37867 47.782 8.948C47.894 9.51733 48.1133 9.97467 48.44 10.32C48.776 10.6653 49.2613 10.838 49.896 10.838C50.5213 10.838 50.9973 10.6653 51.324 10.32C51.66 9.97467 51.8793 9.51733 51.982 8.948C52.094 8.37867 52.15 7.674 52.15 6.834ZM60.3474 2.242V8.416C60.3474 9.284 60.5574 9.928 60.9774 10.348C61.4068 10.768 61.9994 10.978 62.7554 10.978C63.5021 10.978 64.0854 10.768 64.5054 10.348C64.9348 9.928 65.1494 9.284 65.1494 8.416V2.242H66.4234V8.402C66.4234 9.214 66.2601 9.9 65.9334 10.46C65.6068 11.0107 65.1634 11.4213 64.6034 11.692C64.0528 11.9627 63.4321 12.098 62.7414 12.098C62.0508 12.098 61.4254 11.9627 60.8654 11.692C60.3148 11.4213 59.8761 11.0107 59.5494 10.46C59.2321 9.9 59.0734 9.214 59.0734 8.402V2.242H60.3474ZM71.6427 12.098C70.9987 12.098 70.42 11.986 69.9067 11.762C69.4027 11.5287 69.006 11.2113 68.7167 10.81C68.4274 10.3993 68.278 9.928 68.2687 9.396H69.6267C69.6734 9.85333 69.86 10.2407 70.1867 10.558C70.5227 10.866 71.008 11.02 71.6427 11.02C72.2494 11.02 72.7254 10.8707 73.0707 10.572C73.4254 10.264 73.6027 9.872 73.6027 9.396C73.6027 9.02267 73.5 8.71933 73.2947 8.486C73.0894 8.25267 72.8327 8.07533 72.5247 7.954C72.2167 7.83267 71.8014 7.702 71.2787 7.562C70.6347 7.394 70.1167 7.226 69.7247 7.058C69.342 6.89 69.0107 6.62867 68.7307 6.274C68.46 5.91 68.3247 5.42467 68.3247 4.818C68.3247 4.286 68.46 3.81467 68.7307 3.404C69.0014 2.99333 69.3794 2.676 69.8647 2.452C70.3594 2.228 70.924 2.116 71.5587 2.116C72.4734 2.116 73.22 2.34467 73.7987 2.802C74.3867 3.25933 74.718 3.866 74.7927 4.622H73.3927C73.346 4.24867 73.15 3.922 72.8047 3.642C72.4594 3.35267 72.002 3.208 71.4327 3.208C70.9007 3.208 70.4667 3.348 70.1307 3.628C69.7947 3.89867 69.6267 4.28133 69.6267 4.776C69.6267 5.13067 69.7247 5.42 69.9207 5.644C70.126 5.868 70.3734 6.04067 70.6627 6.162C70.9614 6.274 71.3767 6.40467 71.9087 6.554C72.5527 6.73133 73.0707 6.90867 73.4627 7.086C73.8547 7.254 74.1907 7.52 74.4707 7.884C74.7507 8.23867 74.8907 8.724 74.8907 9.34C74.8907 9.816 74.7647 10.264 74.5127 10.684C74.2607 11.104 73.8874 11.4447 73.3927 11.706C72.898 11.9673 72.3147 12.098 71.6427 12.098ZM79.8035 2.242C80.8675 2.242 81.7868 2.44267 82.5615 2.844C83.3455 3.236 83.9428 3.80067 84.3535 4.538C84.7735 5.27533 84.9835 6.14333 84.9835 7.142C84.9835 8.14067 84.7735 9.00867 84.3535 9.746C83.9428 10.474 83.3455 11.034 82.5615 11.426C81.7868 11.8087 80.8675 12 79.8035 12H76.7655V2.242H79.8035ZM79.8035 10.95C81.0635 10.95 82.0248 10.6187 82.6875 9.956C83.3502 9.284 83.6815 8.346 83.6815 7.142C83.6815 5.92867 83.3455 4.98133 82.6735 4.3C82.0108 3.61867 81.0542 3.278 79.8035 3.278H78.0395V10.95H79.8035Z" fill="black"/>
</svg>
