<svg width="82" height="14" viewBox="0 0 82 14" fill="none" xmlns="http://www.w3.org/2000/svg">
<path d="M7.378 9.326C7.378 9.774 7.266 10.2033 7.042 10.614C6.818 11.0153 6.48667 11.3513 6.048 11.622C5.61867 11.8927 5.10067 12.0467 4.494 12.084V13.218H3.738V12.084C2.88867 12.0093 2.198 11.7387 1.666 11.272C1.134 10.796 0.863333 10.194 0.854 9.466H2.212C2.24933 9.858 2.394 10.1987 2.646 10.488C2.90733 10.7773 3.27133 10.9593 3.738 11.034V7.534C3.11267 7.37533 2.60867 7.212 2.226 7.044C1.84333 6.876 1.51667 6.61467 1.246 6.26C0.975333 5.90533 0.84 5.42933 0.84 4.832C0.84 4.076 1.10133 3.45067 1.624 2.956C2.156 2.46133 2.86067 2.186 3.738 2.13V0.967999H4.494V2.13C5.28733 2.19533 5.92667 2.452 6.412 2.9C6.89733 3.33867 7.17733 3.91267 7.252 4.622H5.894C5.84733 4.29533 5.70267 4.00133 5.46 3.74C5.21733 3.46933 4.89533 3.292 4.494 3.208V6.624C5.11 6.78267 5.60933 6.946 5.992 7.114C6.384 7.27267 6.71067 7.52933 6.972 7.884C7.24267 8.23867 7.378 8.71933 7.378 9.326ZM2.142 4.762C2.142 5.21933 2.27733 5.56933 2.548 5.812C2.81867 6.05467 3.21533 6.25533 3.738 6.414V3.18C3.25267 3.22667 2.86533 3.38533 2.576 3.656C2.28667 3.91733 2.142 4.286 2.142 4.762ZM4.494 11.048C4.998 10.992 5.39 10.81 5.67 10.502C5.95933 10.194 6.104 9.82533 6.104 9.396C6.104 8.93867 5.964 8.58867 5.684 8.346C5.404 8.094 5.00733 7.89333 4.494 7.744V11.048ZM19.7634 2.984H14.8494V6.176C15.0641 5.87733 15.3814 5.63467 15.8014 5.448C16.2214 5.252 16.6741 5.154 17.1594 5.154C17.9341 5.154 18.5641 5.31733 19.0494 5.644C19.5347 5.96133 19.8801 6.37667 20.0854 6.89C20.3001 7.394 20.4074 7.93067 20.4074 8.5C20.4074 9.172 20.2814 9.774 20.0294 10.306C19.7774 10.838 19.3901 11.258 18.8674 11.566C18.3541 11.874 17.7147 12.028 16.9494 12.028C15.9694 12.028 15.1761 11.776 14.5694 11.272C13.9627 10.768 13.5941 10.096 13.4634 9.256H14.7094C14.8307 9.788 15.0874 10.2033 15.4794 10.502C15.8714 10.8007 16.3661 10.95 16.9634 10.95C17.7007 10.95 18.2561 10.7307 18.6294 10.292C19.0027 9.844 19.1894 9.256 19.1894 8.528C19.1894 7.8 19.0027 7.24 18.6294 6.848C18.2561 6.44667 17.7054 6.246 16.9774 6.246C16.4827 6.246 16.0487 6.36733 15.6754 6.61C15.3114 6.84333 15.0454 7.16533 14.8774 7.576H13.6734V1.864H19.7634V2.984ZM28.5544 2.984H23.6404V6.176C23.8551 5.87733 24.1724 5.63467 24.5924 5.448C25.0124 5.252 25.4651 5.154 25.9504 5.154C26.7251 5.154 27.3551 5.31733 27.8404 5.644C28.3258 5.96133 28.6711 6.37667 28.8764 6.89C29.0911 7.394 29.1984 7.93067 29.1984 8.5C29.1984 9.172 29.0724 9.774 28.8204 10.306C28.5684 10.838 28.1811 11.258 27.6584 11.566C27.1451 11.874 26.5058 12.028 25.7404 12.028C24.7604 12.028 23.9671 11.776 23.3604 11.272C22.7538 10.768 22.3851 10.096 22.2544 9.256H23.5004C23.6218 9.788 23.8784 10.2033 24.2704 10.502C24.6624 10.8007 25.1571 10.95 25.7544 10.95C26.4918 10.95 27.0471 10.7307 27.4204 10.292C27.7938 9.844 27.9804 9.256 27.9804 8.528C27.9804 7.8 27.7938 7.24 27.4204 6.848C27.0471 6.44667 26.4964 6.246 25.7684 6.246C25.2738 6.246 24.8398 6.36733 24.4664 6.61C24.1024 6.84333 23.8364 7.16533 23.6684 7.576H22.4644V1.864H28.5544V2.984ZM31.5074 12.084C31.2648 12.084 31.0594 12 30.8914 11.832C30.7234 11.664 30.6394 11.4587 30.6394 11.216C30.6394 10.9733 30.7234 10.768 30.8914 10.6C31.0594 10.432 31.2648 10.348 31.5074 10.348C31.7408 10.348 31.9368 10.432 32.0954 10.6C32.2634 10.768 32.3474 10.9733 32.3474 11.216C32.3474 11.4587 32.2634 11.664 32.0954 11.832C31.9368 12 31.7408 12.084 31.5074 12.084ZM33.8309 6.834C33.8309 5.22867 34.0922 3.978 34.6149 3.082C35.1376 2.17667 36.0522 1.724 37.3589 1.724C38.6562 1.724 39.5662 2.17667 40.0889 3.082C40.6116 3.978 40.8729 5.22867 40.8729 6.834C40.8729 8.46733 40.6116 9.73667 40.0889 10.642C39.5662 11.5473 38.6562 12 37.3589 12C36.0522 12 35.1376 11.5473 34.6149 10.642C34.0922 9.73667 33.8309 8.46733 33.8309 6.834ZM39.6129 6.834C39.6129 6.022 39.5569 5.336 39.4449 4.776C39.3422 4.20667 39.1229 3.74933 38.7869 3.404C38.4602 3.05867 37.9842 2.886 37.3589 2.886C36.7242 2.886 36.2389 3.05867 35.9029 3.404C35.5762 3.74933 35.3569 4.20667 35.2449 4.776C35.1422 5.336 35.0909 6.022 35.0909 6.834C35.0909 7.674 35.1422 8.37867 35.2449 8.948C35.3569 9.51733 35.5762 9.97467 35.9029 10.32C36.2389 10.6653 36.7242 10.838 37.3589 10.838C37.9842 10.838 38.4602 10.6653 38.7869 10.32C39.1229 9.97467 39.3422 9.51733 39.4449 8.948C39.5569 8.37867 39.6129 7.674 39.6129 6.834ZM42.6219 6.834C42.6219 5.22867 42.8832 3.978 43.4059 3.082C43.9286 2.17667 44.8432 1.724 46.1499 1.724C47.4472 1.724 48.3572 2.17667 48.8799 3.082C49.4026 3.978 49.6639 5.22867 49.6639 6.834C49.6639 8.46733 49.4026 9.73667 48.8799 10.642C48.3572 11.5473 47.4472 12 46.1499 12C44.8432 12 43.9286 11.5473 43.4059 10.642C42.8832 9.73667 42.6219 8.46733 42.6219 6.834ZM48.4039 6.834C48.4039 6.022 48.3479 5.336 48.2359 4.776C48.1332 4.20667 47.9139 3.74933 47.5779 3.404C47.2512 3.05867 46.7752 2.886 46.1499 2.886C45.5152 2.886 45.0299 3.05867 44.6939 3.404C44.3672 3.74933 44.1479 4.20667 44.0359 4.776C43.9332 5.336 43.8819 6.022 43.8819 6.834C43.8819 7.674 43.9332 8.37867 44.0359 8.948C44.1479 9.51733 44.3672 9.97467 44.6939 10.32C45.0299 10.6653 45.5152 10.838 46.1499 10.838C46.7752 10.838 47.2512 10.6653 47.5779 10.32C47.9139 9.97467 48.1332 9.51733 48.2359 8.948C48.3479 8.37867 48.4039 7.674 48.4039 6.834ZM56.6013 2.242V8.416C56.6013 9.284 56.8113 9.928 57.2313 10.348C57.6607 10.768 58.2533 10.978 59.0093 10.978C59.756 10.978 60.3393 10.768 60.7593 10.348C61.1887 9.928 61.4033 9.284 61.4033 8.416V2.242H62.6773V8.402C62.6773 9.214 62.514 9.9 62.1873 10.46C61.8607 11.0107 61.4173 11.4213 60.8573 11.692C60.3067 11.9627 59.686 12.098 58.9953 12.098C58.3047 12.098 57.6793 11.9627 57.1193 11.692C56.5687 11.4213 56.13 11.0107 55.8033 10.46C55.486 9.9 55.3273 9.214 55.3273 8.402V2.242H56.6013ZM67.8966 12.098C67.2526 12.098 66.6739 11.986 66.1606 11.762C65.6566 11.5287 65.2599 11.2113 64.9706 10.81C64.6813 10.3993 64.5319 9.928 64.5226 9.396H65.8806C65.9273 9.85333 66.1139 10.2407 66.4406 10.558C66.7766 10.866 67.2619 11.02 67.8966 11.02C68.5033 11.02 68.9793 10.8707 69.3246 10.572C69.6793 10.264 69.8566 9.872 69.8566 9.396C69.8566 9.02267 69.7539 8.71933 69.5486 8.486C69.3433 8.25267 69.0866 8.07533 68.7786 7.954C68.4706 7.83267 68.0553 7.702 67.5326 7.562C66.8886 7.394 66.3706 7.226 65.9786 7.058C65.5959 6.89 65.2646 6.62867 64.9846 6.274C64.7139 5.91 64.5786 5.42467 64.5786 4.818C64.5786 4.286 64.7139 3.81467 64.9846 3.404C65.2553 2.99333 65.6333 2.676 66.1186 2.452C66.6133 2.228 67.1779 2.116 67.8126 2.116C68.7273 2.116 69.4739 2.34467 70.0526 2.802C70.6406 3.25933 70.9719 3.866 71.0466 4.622H69.6466C69.5999 4.24867 69.4039 3.922 69.0586 3.642C68.7133 3.35267 68.2559 3.208 67.6866 3.208C67.1546 3.208 66.7206 3.348 66.3846 3.628C66.0486 3.89867 65.8806 4.28133 65.8806 4.776C65.8806 5.13067 65.9786 5.42 66.1746 5.644C66.3799 5.868 66.6273 6.04067 66.9166 6.162C67.2153 6.274 67.6306 6.40467 68.1626 6.554C68.8066 6.73133 69.3246 6.90867 69.7166 7.086C70.1086 7.254 70.4446 7.52 70.7246 7.884C71.0046 8.23867 71.1446 8.724 71.1446 9.34C71.1446 9.816 71.0186 10.264 70.7666 10.684C70.5146 11.104 70.1413 11.4447 69.6466 11.706C69.1519 11.9673 68.5686 12.098 67.8966 12.098ZM76.0574 2.242C77.1214 2.242 78.0407 2.44267 78.8154 2.844C79.5994 3.236 80.1967 3.80067 80.6074 4.538C81.0274 5.27533 81.2374 6.14333 81.2374 7.142C81.2374 8.14067 81.0274 9.00867 80.6074 9.746C80.1967 10.474 79.5994 11.034 78.8154 11.426C78.0407 11.8087 77.1214 12 76.0574 12H73.0194V2.242H76.0574ZM76.0574 10.95C77.3174 10.95 78.2787 10.6187 78.9414 9.956C79.6041 9.284 79.9354 8.346 79.9354 7.142C79.9354 5.92867 79.5994 4.98133 78.9274 4.3C78.2647 3.61867 77.3081 3.278 76.0574 3.278H74.2934V10.95H76.0574Z" fill="black"/>
</svg>
