<svg width="82" height="14" viewBox="0 0 82 14" fill="none" xmlns="http://www.w3.org/2000/svg">
<path d="M7.378 9.326C7.378 9.774 7.266 10.2033 7.042 10.614C6.818 11.0153 6.48667 11.3513 6.048 11.622C5.61867 11.8927 5.10067 12.0467 4.494 12.084V13.218H3.738V12.084C2.88867 12.0093 2.198 11.7387 1.666 11.272C1.134 10.796 0.863333 10.194 0.854 9.466H2.212C2.24933 9.858 2.394 10.1987 2.646 10.488C2.90733 10.7773 3.27133 10.9593 3.738 11.034V7.534C3.11267 7.37533 2.60867 7.212 2.226 7.044C1.84333 6.876 1.51667 6.61467 1.246 6.26C0.975333 5.90533 0.84 5.42933 0.84 4.832C0.84 4.076 1.10133 3.45067 1.624 2.956C2.156 2.46133 2.86067 2.186 3.738 2.13V0.967999H4.494V2.13C5.28733 2.19533 5.92667 2.452 6.412 2.9C6.89733 3.33867 7.17733 3.91267 7.252 4.622H5.894C5.84733 4.29533 5.70267 4.00133 5.46 3.74C5.21733 3.46933 4.89533 3.292 4.494 3.208V6.624C5.11 6.78267 5.60933 6.946 5.992 7.114C6.384 7.27267 6.71067 7.52933 6.972 7.884C7.24267 8.23867 7.378 8.71933 7.378 9.326ZM2.142 4.762C2.142 5.21933 2.27733 5.56933 2.548 5.812C2.81867 6.05467 3.21533 6.25533 3.738 6.414V3.18C3.25267 3.22667 2.86533 3.38533 2.576 3.656C2.28667 3.91733 2.142 4.286 2.142 4.762ZM4.494 11.048C4.998 10.992 5.39 10.81 5.67 10.502C5.95933 10.194 6.104 9.82533 6.104 9.396C6.104 8.93867 5.964 8.58867 5.684 8.346C5.404 8.094 5.00733 7.89333 4.494 7.744V11.048ZM18.9514 4.286C18.7461 3.25 18.1067 2.732 17.0334 2.732C16.2027 2.732 15.5821 3.054 15.1714 3.698C14.7607 4.33267 14.5601 5.38267 14.5694 6.848C14.7841 6.36267 15.1387 5.98467 15.6334 5.714C16.1374 5.434 16.6974 5.294 17.3134 5.294C18.2747 5.294 19.0401 5.59267 19.6094 6.19C20.1881 6.78733 20.4774 7.61333 20.4774 8.668C20.4774 9.30267 20.3514 9.872 20.0994 10.376C19.8567 10.88 19.4834 11.2813 18.9794 11.58C18.4847 11.8787 17.8827 12.028 17.1734 12.028C16.2121 12.028 15.4607 11.8133 14.9194 11.384C14.3781 10.9547 14.0001 10.362 13.7854 9.606C13.5707 8.85 13.4634 7.91667 13.4634 6.806C13.4634 3.38067 14.6581 1.668 17.0474 1.668C17.9621 1.668 18.6807 1.91533 19.2034 2.41C19.7261 2.90467 20.0341 3.53 20.1274 4.286H18.9514ZM17.0474 6.372C16.6461 6.372 16.2681 6.456 15.9134 6.624C15.5587 6.78267 15.2694 7.03 15.0454 7.366C14.8307 7.69267 14.7234 8.094 14.7234 8.57C14.7234 9.27933 14.9287 9.858 15.3394 10.306C15.7501 10.7447 16.3381 10.964 17.1034 10.964C17.7567 10.964 18.2747 10.7633 18.6574 10.362C19.0494 9.95133 19.2454 9.40067 19.2454 8.71C19.2454 7.982 19.0587 7.41267 18.6854 7.002C18.3121 6.582 17.7661 6.372 17.0474 6.372ZM28.6501 2.984H23.7361V6.176C23.9508 5.87733 24.2681 5.63467 24.6881 5.448C25.1081 5.252 25.5608 5.154 26.0461 5.154C26.8208 5.154 27.4508 5.31733 27.9361 5.644C28.4215 5.96133 28.7668 6.37667 28.9721 6.89C29.1868 7.394 29.2941 7.93067 29.2941 8.5C29.2941 9.172 29.1681 9.774 28.9161 10.306C28.6641 10.838 28.2768 11.258 27.7541 11.566C27.2408 11.874 26.6015 12.028 25.8361 12.028C24.8561 12.028 24.0628 11.776 23.4561 11.272C22.8495 10.768 22.4808 10.096 22.3501 9.256H23.5961C23.7175 9.788 23.9741 10.2033 24.3661 10.502C24.7581 10.8007 25.2528 10.95 25.8501 10.95C26.5875 10.95 27.1428 10.7307 27.5161 10.292C27.8895 9.844 28.0761 9.256 28.0761 8.528C28.0761 7.8 27.8895 7.24 27.5161 6.848C27.1428 6.44667 26.5921 6.246 25.8641 6.246C25.3695 6.246 24.9355 6.36733 24.5621 6.61C24.1981 6.84333 23.9321 7.16533 23.7641 7.576H22.5601V1.864H28.6501V2.984ZM31.6031 12.084C31.3605 12.084 31.1551 12 30.9871 11.832C30.8191 11.664 30.7351 11.4587 30.7351 11.216C30.7351 10.9733 30.8191 10.768 30.9871 10.6C31.1551 10.432 31.3605 10.348 31.6031 10.348C31.8365 10.348 32.0325 10.432 32.1911 10.6C32.3591 10.768 32.4431 10.9733 32.4431 11.216C32.4431 11.4587 32.3591 11.664 32.1911 11.832C32.0325 12 31.8365 12.084 31.6031 12.084ZM33.9266 6.834C33.9266 5.22867 34.1879 3.978 34.7106 3.082C35.2333 2.17667 36.1479 1.724 37.4546 1.724C38.7519 1.724 39.6619 2.17667 40.1846 3.082C40.7073 3.978 40.9686 5.22867 40.9686 6.834C40.9686 8.46733 40.7073 9.73667 40.1846 10.642C39.6619 11.5473 38.7519 12 37.4546 12C36.1479 12 35.2333 11.5473 34.7106 10.642C34.1879 9.73667 33.9266 8.46733 33.9266 6.834ZM39.7086 6.834C39.7086 6.022 39.6526 5.336 39.5406 4.776C39.4379 4.20667 39.2186 3.74933 38.8826 3.404C38.5559 3.05867 38.0799 2.886 37.4546 2.886C36.8199 2.886 36.3346 3.05867 35.9986 3.404C35.6719 3.74933 35.4526 4.20667 35.3406 4.776C35.2379 5.336 35.1866 6.022 35.1866 6.834C35.1866 7.674 35.2379 8.37867 35.3406 8.948C35.4526 9.51733 35.6719 9.97467 35.9986 10.32C36.3346 10.6653 36.8199 10.838 37.4546 10.838C38.0799 10.838 38.5559 10.6653 38.8826 10.32C39.2186 9.97467 39.4379 9.51733 39.5406 8.948C39.6526 8.37867 39.7086 7.674 39.7086 6.834ZM42.7176 6.834C42.7176 5.22867 42.9789 3.978 43.5016 3.082C44.0243 2.17667 44.9389 1.724 46.2456 1.724C47.5429 1.724 48.4529 2.17667 48.9756 3.082C49.4983 3.978 49.7596 5.22867 49.7596 6.834C49.7596 8.46733 49.4983 9.73667 48.9756 10.642C48.4529 11.5473 47.5429 12 46.2456 12C44.9389 12 44.0243 11.5473 43.5016 10.642C42.9789 9.73667 42.7176 8.46733 42.7176 6.834ZM48.4996 6.834C48.4996 6.022 48.4436 5.336 48.3316 4.776C48.2289 4.20667 48.0096 3.74933 47.6736 3.404C47.3469 3.05867 46.8709 2.886 46.2456 2.886C45.6109 2.886 45.1256 3.05867 44.7896 3.404C44.4629 3.74933 44.2436 4.20667 44.1316 4.776C44.0289 5.336 43.9776 6.022 43.9776 6.834C43.9776 7.674 44.0289 8.37867 44.1316 8.948C44.2436 9.51733 44.4629 9.97467 44.7896 10.32C45.1256 10.6653 45.6109 10.838 46.2456 10.838C46.8709 10.838 47.3469 10.6653 47.6736 10.32C48.0096 9.97467 48.2289 9.51733 48.3316 8.948C48.4436 8.37867 48.4996 7.674 48.4996 6.834ZM56.697 2.242V8.416C56.697 9.284 56.907 9.928 57.327 10.348C57.7564 10.768 58.349 10.978 59.105 10.978C59.8517 10.978 60.435 10.768 60.855 10.348C61.2844 9.928 61.499 9.284 61.499 8.416V2.242H62.773V8.402C62.773 9.214 62.6097 9.9 62.283 10.46C61.9564 11.0107 61.513 11.4213 60.953 11.692C60.4024 11.9627 59.7817 12.098 59.091 12.098C58.4004 12.098 57.775 11.9627 57.215 11.692C56.6644 11.4213 56.2257 11.0107 55.899 10.46C55.5817 9.9 55.423 9.214 55.423 8.402V2.242H56.697ZM67.9923 12.098C67.3483 12.098 66.7696 11.986 66.2563 11.762C65.7523 11.5287 65.3556 11.2113 65.0663 10.81C64.777 10.3993 64.6276 9.928 64.6183 9.396H65.9763C66.023 9.85333 66.2096 10.2407 66.5363 10.558C66.8723 10.866 67.3576 11.02 67.9923 11.02C68.599 11.02 69.075 10.8707 69.4203 10.572C69.775 10.264 69.9523 9.872 69.9523 9.396C69.9523 9.02267 69.8496 8.71933 69.6443 8.486C69.439 8.25267 69.1823 8.07533 68.8743 7.954C68.5663 7.83267 68.151 7.702 67.6283 7.562C66.9843 7.394 66.4663 7.226 66.0743 7.058C65.6916 6.89 65.3603 6.62867 65.0803 6.274C64.8096 5.91 64.6743 5.42467 64.6743 4.818C64.6743 4.286 64.8096 3.81467 65.0803 3.404C65.351 2.99333 65.729 2.676 66.2143 2.452C66.709 2.228 67.2736 2.116 67.9083 2.116C68.823 2.116 69.5696 2.34467 70.1483 2.802C70.7363 3.25933 71.0676 3.866 71.1423 4.622H69.7423C69.6956 4.24867 69.4996 3.922 69.1543 3.642C68.809 3.35267 68.3516 3.208 67.7823 3.208C67.2503 3.208 66.8163 3.348 66.4803 3.628C66.1443 3.89867 65.9763 4.28133 65.9763 4.776C65.9763 5.13067 66.0743 5.42 66.2703 5.644C66.4756 5.868 66.723 6.04067 67.0123 6.162C67.311 6.274 67.7263 6.40467 68.2583 6.554C68.9023 6.73133 69.4203 6.90867 69.8123 7.086C70.2043 7.254 70.5403 7.52 70.8203 7.884C71.1003 8.23867 71.2403 8.724 71.2403 9.34C71.2403 9.816 71.1143 10.264 70.8623 10.684C70.6103 11.104 70.237 11.4447 69.7423 11.706C69.2476 11.9673 68.6643 12.098 67.9923 12.098ZM76.1531 2.242C77.2171 2.242 78.1364 2.44267 78.9111 2.844C79.6951 3.236 80.2924 3.80067 80.7031 4.538C81.1231 5.27533 81.3331 6.14333 81.3331 7.142C81.3331 8.14067 81.1231 9.00867 80.7031 9.746C80.2924 10.474 79.6951 11.034 78.9111 11.426C78.1364 11.8087 77.2171 12 76.1531 12H73.1151V2.242H76.1531ZM76.1531 10.95C77.4131 10.95 78.3744 10.6187 79.0371 9.956C79.6998 9.284 80.0311 8.346 80.0311 7.142C80.0311 5.92867 79.6951 4.98133 79.0231 4.3C78.3604 3.61867 77.4038 3.278 76.1531 3.278H74.3891V10.95H76.1531Z" fill="black"/>
</svg>
