<svg width="81" height="14" viewBox="0 0 81 14" fill="none" xmlns="http://www.w3.org/2000/svg">
<path d="M7.378 9.326C7.378 9.774 7.266 10.2033 7.042 10.614C6.818 11.0153 6.48667 11.3513 6.048 11.622C5.61867 11.8927 5.10067 12.0467 4.494 12.084V13.218H3.738V12.084C2.88867 12.0093 2.198 11.7387 1.666 11.272C1.134 10.796 0.863333 10.194 0.854 9.466H2.212C2.24933 9.858 2.394 10.1987 2.646 10.488C2.90733 10.7773 3.27133 10.9593 3.738 11.034V7.534C3.11267 7.37533 2.60867 7.212 2.226 7.044C1.84333 6.876 1.51667 6.61467 1.246 6.26C0.975333 5.90533 0.84 5.42933 0.84 4.832C0.84 4.076 1.10133 3.45067 1.624 2.956C2.156 2.46133 2.86067 2.186 3.738 2.13V0.967999H4.494V2.13C5.28733 2.19533 5.92667 2.452 6.412 2.9C6.89733 3.33867 7.17733 3.91267 7.252 4.622H5.894C5.84733 4.29533 5.70267 4.00133 5.46 3.74C5.21733 3.46933 4.89533 3.292 4.494 3.208V6.624C5.11 6.78267 5.60933 6.946 5.992 7.114C6.384 7.27267 6.71067 7.52933 6.972 7.884C7.24267 8.23867 7.378 8.71933 7.378 9.326ZM2.142 4.762C2.142 5.21933 2.27733 5.56933 2.548 5.812C2.81867 6.05467 3.21533 6.25533 3.738 6.414V3.18C3.25267 3.22667 2.86533 3.38533 2.576 3.656C2.28667 3.91733 2.142 4.286 2.142 4.762ZM4.494 11.048C4.998 10.992 5.39 10.81 5.67 10.502C5.95933 10.194 6.104 9.82533 6.104 9.396C6.104 8.93867 5.964 8.58867 5.684 8.346C5.404 8.094 5.00733 7.89333 4.494 7.744V11.048ZM19.5394 2.872L15.6474 12H14.3594L18.3074 2.998H12.9034V1.906H19.5394V2.872ZM27.406 2.984H22.492V6.176C22.7067 5.87733 23.024 5.63467 23.444 5.448C23.864 5.252 24.3167 5.154 24.802 5.154C25.5767 5.154 26.2067 5.31733 26.692 5.644C27.1773 5.96133 27.5227 6.37667 27.728 6.89C27.9427 7.394 28.05 7.93067 28.05 8.5C28.05 9.172 27.924 9.774 27.672 10.306C27.42 10.838 27.0327 11.258 26.51 11.566C25.9967 11.874 25.3573 12.028 24.592 12.028C23.612 12.028 22.8187 11.776 22.212 11.272C21.6053 10.768 21.2367 10.096 21.106 9.256H22.352C22.4733 9.788 22.73 10.2033 23.122 10.502C23.514 10.8007 24.0087 10.95 24.606 10.95C25.3433 10.95 25.8987 10.7307 26.272 10.292C26.6453 9.844 26.832 9.256 26.832 8.528C26.832 7.8 26.6453 7.24 26.272 6.848C25.8987 6.44667 25.348 6.246 24.62 6.246C24.1253 6.246 23.6913 6.36733 23.318 6.61C22.954 6.84333 22.688 7.16533 22.52 7.576H21.316V1.864H27.406V2.984ZM30.359 12.084C30.1163 12.084 29.911 12 29.743 11.832C29.575 11.664 29.491 11.4587 29.491 11.216C29.491 10.9733 29.575 10.768 29.743 10.6C29.911 10.432 30.1163 10.348 30.359 10.348C30.5923 10.348 30.7883 10.432 30.947 10.6C31.115 10.768 31.199 10.9733 31.199 11.216C31.199 11.4587 31.115 11.664 30.947 11.832C30.7883 12 30.5923 12.084 30.359 12.084ZM32.6825 6.834C32.6825 5.22867 32.9438 3.978 33.4665 3.082C33.9891 2.17667 34.9038 1.724 36.2105 1.724C37.5078 1.724 38.4178 2.17667 38.9405 3.082C39.4631 3.978 39.7245 5.22867 39.7245 6.834C39.7245 8.46733 39.4631 9.73667 38.9405 10.642C38.4178 11.5473 37.5078 12 36.2105 12C34.9038 12 33.9891 11.5473 33.4665 10.642C32.9438 9.73667 32.6825 8.46733 32.6825 6.834ZM38.4645 6.834C38.4645 6.022 38.4085 5.336 38.2965 4.776C38.1938 4.20667 37.9745 3.74933 37.6385 3.404C37.3118 3.05867 36.8358 2.886 36.2105 2.886C35.5758 2.886 35.0905 3.05867 34.7545 3.404C34.4278 3.74933 34.2085 4.20667 34.0965 4.776C33.9938 5.336 33.9425 6.022 33.9425 6.834C33.9425 7.674 33.9938 8.37867 34.0965 8.948C34.2085 9.51733 34.4278 9.97467 34.7545 10.32C35.0905 10.6653 35.5758 10.838 36.2105 10.838C36.8358 10.838 37.3118 10.6653 37.6385 10.32C37.9745 9.97467 38.1938 9.51733 38.2965 8.948C38.4085 8.37867 38.4645 7.674 38.4645 6.834ZM41.4735 6.834C41.4735 5.22867 41.7348 3.978 42.2575 3.082C42.7801 2.17667 43.6948 1.724 45.0015 1.724C46.2988 1.724 47.2088 2.17667 47.7315 3.082C48.2541 3.978 48.5155 5.22867 48.5155 6.834C48.5155 8.46733 48.2541 9.73667 47.7315 10.642C47.2088 11.5473 46.2988 12 45.0015 12C43.6948 12 42.7801 11.5473 42.2575 10.642C41.7348 9.73667 41.4735 8.46733 41.4735 6.834ZM47.2555 6.834C47.2555 6.022 47.1995 5.336 47.0875 4.776C46.9848 4.20667 46.7655 3.74933 46.4295 3.404C46.1028 3.05867 45.6268 2.886 45.0015 2.886C44.3668 2.886 43.8815 3.05867 43.5455 3.404C43.2188 3.74933 42.9995 4.20667 42.8875 4.776C42.7848 5.336 42.7335 6.022 42.7335 6.834C42.7335 7.674 42.7848 8.37867 42.8875 8.948C42.9995 9.51733 43.2188 9.97467 43.5455 10.32C43.8815 10.6653 44.3668 10.838 45.0015 10.838C45.6268 10.838 46.1028 10.6653 46.4295 10.32C46.7655 9.97467 46.9848 9.51733 47.0875 8.948C47.1995 8.37867 47.2555 7.674 47.2555 6.834ZM55.4529 2.242V8.416C55.4529 9.284 55.6629 9.928 56.0829 10.348C56.5122 10.768 57.1049 10.978 57.8609 10.978C58.6076 10.978 59.1909 10.768 59.6109 10.348C60.0402 9.928 60.2549 9.284 60.2549 8.416V2.242H61.5289V8.402C61.5289 9.214 61.3656 9.9 61.0389 10.46C60.7122 11.0107 60.2689 11.4213 59.7089 11.692C59.1582 11.9627 58.5376 12.098 57.8469 12.098C57.1562 12.098 56.5309 11.9627 55.9709 11.692C55.4202 11.4213 54.9816 11.0107 54.6549 10.46C54.3376 9.9 54.1789 9.214 54.1789 8.402V2.242H55.4529ZM66.7482 12.098C66.1042 12.098 65.5255 11.986 65.0122 11.762C64.5082 11.5287 64.1115 11.2113 63.8222 10.81C63.5328 10.3993 63.3835 9.928 63.3742 9.396H64.7322C64.7788 9.85333 64.9655 10.2407 65.2922 10.558C65.6282 10.866 66.1135 11.02 66.7482 11.02C67.3548 11.02 67.8308 10.8707 68.1762 10.572C68.5308 10.264 68.7082 9.872 68.7082 9.396C68.7082 9.02267 68.6055 8.71933 68.4002 8.486C68.1948 8.25267 67.9382 8.07533 67.6302 7.954C67.3222 7.83267 66.9068 7.702 66.3842 7.562C65.7402 7.394 65.2222 7.226 64.8302 7.058C64.4475 6.89 64.1162 6.62867 63.8362 6.274C63.5655 5.91 63.4302 5.42467 63.4302 4.818C63.4302 4.286 63.5655 3.81467 63.8362 3.404C64.1068 2.99333 64.4848 2.676 64.9702 2.452C65.4648 2.228 66.0295 2.116 66.6642 2.116C67.5788 2.116 68.3255 2.34467 68.9042 2.802C69.4922 3.25933 69.8235 3.866 69.8982 4.622H68.4982C68.4515 4.24867 68.2555 3.922 67.9102 3.642C67.5648 3.35267 67.1075 3.208 66.5382 3.208C66.0062 3.208 65.5722 3.348 65.2362 3.628C64.9002 3.89867 64.7322 4.28133 64.7322 4.776C64.7322 5.13067 64.8302 5.42 65.0262 5.644C65.2315 5.868 65.4788 6.04067 65.7682 6.162C66.0668 6.274 66.4822 6.40467 67.0142 6.554C67.6582 6.73133 68.1762 6.90867 68.5682 7.086C68.9602 7.254 69.2962 7.52 69.5762 7.884C69.8562 8.23867 69.9962 8.724 69.9962 9.34C69.9962 9.816 69.8702 10.264 69.6182 10.684C69.3662 11.104 68.9928 11.4447 68.4982 11.706C68.0035 11.9673 67.4202 12.098 66.7482 12.098ZM74.909 2.242C75.973 2.242 76.8923 2.44267 77.667 2.844C78.451 3.236 79.0483 3.80067 79.459 4.538C79.879 5.27533 80.089 6.14333 80.089 7.142C80.089 8.14067 79.879 9.00867 79.459 9.746C79.0483 10.474 78.451 11.034 77.667 11.426C76.8923 11.8087 75.973 12 74.909 12H71.871V2.242H74.909ZM74.909 10.95C76.169 10.95 77.1303 10.6187 77.793 9.956C78.4556 9.284 78.787 8.346 78.787 7.142C78.787 5.92867 78.451 4.98133 77.779 4.3C77.1163 3.61867 76.1596 3.278 74.909 3.278H73.145V10.95H74.909Z" fill="black"/>
</svg>
