<svg width="74" height="13" viewBox="0 0 74 13" fill="none" xmlns="http://www.w3.org/2000/svg">
<path d="M0.792 0.127999C0.866667 0.127999 1.02133 0.127999 1.256 0.127999C1.49067 0.127999 1.74667 0.133333 2.024 0.143999C2.30133 0.143999 2.55733 0.143999 2.792 0.143999C3.02667 0.143999 3.192 0.143999 3.288 0.143999C4.77067 0.165333 5.96533 0.4 6.872 0.848C7.78933 1.296 8.456 1.94667 8.872 2.8C9.29867 3.65333 9.512 4.70933 9.512 5.968C9.512 7.30133 9.28267 8.416 8.824 9.312C8.36533 10.208 7.66133 10.88 6.712 11.328C5.76267 11.776 4.568 12 3.128 12H0.776C0.626667 12 0.552 11.9147 0.552 11.744V0.351999C0.552 0.277333 0.568 0.224 0.6 0.191999C0.642667 0.149333 0.706667 0.127999 0.792 0.127999ZM2.248 1.296C2.14133 1.296 2.088 1.37067 2.088 1.52V10.672C2.088 10.7893 2.152 10.848 2.28 10.848H2.888C4.072 10.848 5.032 10.6933 5.768 10.384C6.504 10.064 7.04267 9.552 7.384 8.848C7.736 8.144 7.912 7.21067 7.912 6.048C7.912 4.832 7.73067 3.88267 7.368 3.2C7.016 2.50667 6.472 2.016 5.736 1.728C5.01067 1.44 4.088 1.296 2.968 1.296H2.248ZM16.6589 10.976C16.2642 11.36 15.8322 11.6533 15.3629 11.856C14.9042 12.0587 14.3869 12.16 13.8109 12.16C12.9789 12.16 12.3229 11.9467 11.8429 11.52C11.3735 11.0933 11.1389 10.5333 11.1389 9.84C11.1389 9.27467 11.2989 8.78933 11.6189 8.384C11.9389 7.968 12.4135 7.64267 13.0429 7.408C13.6722 7.16267 14.4455 7.01333 15.3629 6.96L16.6109 6.864C16.6749 6.85333 16.7335 6.832 16.7869 6.8C16.8402 6.768 16.8669 6.70933 16.8669 6.624V6.192C16.8669 5.616 16.6855 5.16267 16.3229 4.832C15.9709 4.49067 15.4909 4.32 14.8829 4.32C14.4135 4.32 13.9869 4.42667 13.6029 4.64C13.2295 4.85333 12.8935 5.17333 12.5949 5.6C12.5522 5.65333 12.5149 5.69067 12.4829 5.712C12.4615 5.72267 12.4189 5.71733 12.3549 5.696L11.4909 5.408C11.4589 5.38667 11.4322 5.36 11.4109 5.328C11.4002 5.296 11.4162 5.23733 11.4589 5.152C11.7789 4.59733 12.2269 4.16 12.8029 3.84C13.3895 3.52 14.1042 3.36 14.9469 3.36C15.6615 3.36 16.2535 3.472 16.7229 3.696C17.2029 3.90933 17.5602 4.224 17.7949 4.64C18.0402 5.04533 18.1629 5.53067 18.1629 6.096V11.76C18.1629 11.856 18.1469 11.92 18.1149 11.952C18.0829 11.984 18.0295 12 17.9549 12H17.1389C17.0642 12 17.0109 11.9787 16.9789 11.936C16.9469 11.8827 16.9255 11.8187 16.9149 11.744L16.8989 11.008C16.8669 10.8587 16.7869 10.848 16.6589 10.976ZM16.8669 7.936C16.8669 7.75467 16.7922 7.66933 16.6429 7.68L15.5869 7.776C15.0962 7.79733 14.6589 7.86133 14.2749 7.968C13.8909 8.064 13.5655 8.192 13.2989 8.352C13.0322 8.512 12.8295 8.704 12.6909 8.928C12.5522 9.14133 12.4829 9.392 12.4829 9.68C12.4829 10.1493 12.6429 10.5173 12.9629 10.784C13.2935 11.04 13.7362 11.168 14.2909 11.168C14.6322 11.168 14.9575 11.1093 15.2669 10.992C15.5869 10.864 15.8642 10.704 16.0989 10.512C16.3442 10.3093 16.5309 10.1013 16.6589 9.888C16.7975 9.67467 16.8669 9.46667 16.8669 9.264V7.936ZM20.7685 12C20.6938 12 20.6352 11.984 20.5925 11.952C20.5605 11.9093 20.5445 11.856 20.5445 11.792V3.728C20.5445 3.58933 20.6032 3.52 20.7205 3.52H21.6485C21.7658 3.52 21.8245 3.57867 21.8245 3.696V4.736C21.8245 4.8 21.8405 4.83733 21.8725 4.848C21.9045 4.85867 21.9472 4.83733 22.0005 4.784C22.2778 4.45333 22.5498 4.18667 22.8165 3.984C23.0938 3.77067 23.3712 3.616 23.6485 3.52C23.9258 3.41333 24.2032 3.36 24.4805 3.36C24.8538 3.36 25.0405 3.42933 25.0405 3.568V4.528C25.0405 4.63467 24.9925 4.67733 24.8965 4.656C24.8005 4.64533 24.6885 4.63467 24.5605 4.624C24.4432 4.61333 24.3152 4.608 24.1765 4.608C23.9418 4.608 23.6912 4.66133 23.4245 4.768C23.1578 4.864 22.9072 5.00267 22.6725 5.184C22.4485 5.36533 22.2618 5.568 22.1125 5.792C21.9632 6.016 21.8885 6.24 21.8885 6.464V11.76C21.8885 11.92 21.8085 12 21.6485 12H20.7685ZM33.9975 11.744C34.0402 11.808 34.0508 11.8667 34.0295 11.92C34.0082 11.9733 33.9495 12 33.8535 12H32.7335C32.6695 12 32.6108 11.984 32.5575 11.952C32.5148 11.92 32.4775 11.872 32.4455 11.808L30.0295 7.664C30.0082 7.62133 29.9815 7.59467 29.9495 7.584C29.9282 7.56267 29.8908 7.57867 29.8375 7.632L28.1415 9.344C28.0988 9.38667 28.0668 9.43467 28.0455 9.488C28.0348 9.53067 28.0295 9.58933 28.0295 9.664V11.728C28.0295 11.8347 28.0082 11.9093 27.9655 11.952C27.9335 11.984 27.8588 12 27.7415 12H26.9255C26.8188 12 26.7495 11.984 26.7175 11.952C26.6962 11.92 26.6855 11.8613 26.6855 11.776V0.351999C26.6855 0.202666 26.7442 0.127999 26.8615 0.127999H27.8375C27.9655 0.127999 28.0295 0.197333 28.0295 0.335999V7.76C28.0295 7.84533 28.0402 7.89867 28.0615 7.92C28.0828 7.93067 28.1255 7.89867 28.1895 7.824L32.1415 3.712C32.2588 3.584 32.3708 3.52 32.4775 3.52H33.4535C33.5602 3.52 33.6188 3.552 33.6295 3.616C33.6508 3.66933 33.6188 3.73867 33.5335 3.824L31.0055 6.4C30.9735 6.432 30.9522 6.46933 30.9415 6.512C30.9415 6.55467 30.9575 6.608 30.9895 6.672L33.9975 11.744ZM39.6346 12C39.5706 12 39.5226 11.984 39.4906 11.952C39.4586 11.92 39.4426 11.872 39.4426 11.808V0.351999C39.4426 0.277333 39.4586 0.224 39.4906 0.191999C39.5333 0.149333 39.5866 0.127999 39.6506 0.127999H43.3466C44.7653 0.127999 45.8586 0.389333 46.6266 0.912C47.4053 1.43467 47.7946 2.19733 47.7946 3.2C47.7946 3.84 47.624 4.384 47.2826 4.832C46.952 5.26933 46.424 5.616 45.6986 5.872C45.656 5.88267 45.6346 5.904 45.6346 5.936C45.6346 5.968 45.656 5.98933 45.6986 6C46.4666 6.192 47.0533 6.52267 47.4586 6.992C47.8746 7.45067 48.0826 8.064 48.0826 8.832C48.0826 9.89867 47.6826 10.6933 46.8826 11.216C46.0826 11.7387 44.9413 12 43.4586 12H39.6346ZM43.3786 10.88C44.424 10.88 45.2026 10.7147 45.7146 10.384C46.2266 10.0427 46.4826 9.50933 46.4826 8.784C46.4826 8.26133 46.3546 7.84 46.0986 7.52C45.8426 7.18933 45.496 6.94933 45.0586 6.8C44.6213 6.65067 44.12 6.576 43.5546 6.576H41.2026C41.0533 6.576 40.9786 6.64 40.9786 6.768V10.656C40.9786 10.8053 41.0266 10.88 41.1226 10.88H43.3786ZM43.5546 5.424C43.8746 5.424 44.1946 5.392 44.5146 5.328C44.8346 5.264 45.1226 5.15733 45.3786 5.008C45.6453 4.848 45.8533 4.64 46.0026 4.384C46.1626 4.11733 46.2426 3.78133 46.2426 3.376C46.2426 2.65067 45.976 2.11733 45.4426 1.776C44.92 1.424 44.2213 1.248 43.3466 1.248H41.1866C41.048 1.248 40.9786 1.312 40.9786 1.44V5.216C40.9786 5.35467 41.0266 5.424 41.1226 5.424H43.5546ZM53.8621 12.16C53.0621 12.16 52.3528 11.9787 51.7341 11.616C51.1261 11.2427 50.6515 10.7307 50.3101 10.08C49.9795 9.41867 49.8141 8.66133 49.8141 7.808C49.8141 6.92267 49.9848 6.14933 50.3261 5.488C50.6781 4.816 51.1581 4.29333 51.7661 3.92C52.3741 3.54667 53.0781 3.36 53.8781 3.36C54.6888 3.36 55.3928 3.552 55.9901 3.936C56.5981 4.30933 57.0675 4.832 57.3981 5.504C57.7395 6.16533 57.9101 6.928 57.9101 7.792C57.9101 8.64533 57.7395 9.40267 57.3981 10.064C57.0568 10.7147 56.5821 11.2267 55.9741 11.6C55.3768 11.9733 54.6728 12.16 53.8621 12.16ZM53.8941 11.152C54.4488 11.152 54.9235 11.0187 55.3181 10.752C55.7128 10.4747 56.0115 10.0853 56.2141 9.584C56.4275 9.072 56.5341 8.464 56.5341 7.76C56.5341 7.056 56.4275 6.45333 56.2141 5.952C56.0008 5.44 55.6968 5.04533 55.3021 4.768C54.9075 4.49067 54.4328 4.352 53.8781 4.352C53.3341 4.352 52.8595 4.49067 52.4541 4.768C52.0488 5.04533 51.7341 5.44 51.5101 5.952C51.2968 6.45333 51.1901 7.056 51.1901 7.76C51.1901 8.45333 51.2968 9.056 51.5101 9.568C51.7341 10.08 52.0488 10.4747 52.4541 10.752C52.8595 11.0187 53.3395 11.152 53.8941 11.152ZM70.455 3.52C70.519 3.52 70.567 3.54667 70.599 3.6C70.631 3.64267 70.6363 3.696 70.615 3.76L68.167 11.792C68.1457 11.8667 68.1083 11.92 68.055 11.952C68.0123 11.984 67.9483 12 67.863 12H67.095C66.9137 12 66.8017 11.9307 66.759 11.792L64.855 5.808C64.8123 5.712 64.775 5.664 64.743 5.664C64.711 5.664 64.6843 5.712 64.663 5.808L62.855 11.792C62.8337 11.8667 62.7963 11.92 62.743 11.952C62.7003 11.984 62.6363 12 62.551 12H61.735C61.5643 12 61.4523 11.9307 61.399 11.792L58.871 3.76C58.8603 3.696 58.871 3.64267 58.903 3.6C58.935 3.54667 58.9883 3.52 59.063 3.52H60.007C60.071 3.52 60.1243 3.536 60.167 3.568C60.2097 3.58933 60.2417 3.632 60.263 3.696L62.167 9.92C62.199 10.0267 62.2363 10.08 62.279 10.08C62.3217 10.0693 62.3643 10.0107 62.407 9.904L64.295 3.68C64.3163 3.62667 64.343 3.58933 64.375 3.568C64.4177 3.536 64.4657 3.52 64.519 3.52H65.271C65.335 3.52 65.3883 3.536 65.431 3.568C65.4737 3.58933 65.5003 3.632 65.511 3.696L67.479 9.92C67.511 10.0267 67.5483 10.08 67.591 10.08C67.6337 10.0693 67.671 10.0107 67.703 9.904L69.543 3.696C69.575 3.632 69.6123 3.58933 69.655 3.568C69.6977 3.536 69.751 3.52 69.815 3.52H70.455ZM73.7014 11.728C73.7014 11.8347 73.68 11.9093 73.6374 11.952C73.5947 11.984 73.52 12 73.4134 12H72.5814C72.4214 12 72.3414 11.9253 72.3414 11.776L72.3574 0.351999C72.3574 0.202666 72.4214 0.127999 72.5494 0.127999H73.5094C73.6374 0.127999 73.7014 0.197333 73.7014 0.335999V11.728Z" fill="#6C6C6C"/>
</svg>
