<svg width="86" height="13" viewBox="0 0 86 13" fill="none" xmlns="http://www.w3.org/2000/svg">
<path d="M0.792 0.127999C0.866667 0.127999 1.02133 0.127999 1.256 0.127999C1.49067 0.127999 1.74667 0.133333 2.024 0.143999C2.30133 0.143999 2.55733 0.143999 2.792 0.143999C3.02667 0.143999 3.192 0.143999 3.288 0.143999C4.77067 0.165333 5.96533 0.4 6.872 0.848C7.78933 1.296 8.456 1.94667 8.872 2.8C9.29867 3.65333 9.512 4.70933 9.512 5.968C9.512 7.30133 9.28267 8.416 8.824 9.312C8.36533 10.208 7.66133 10.88 6.712 11.328C5.76267 11.776 4.568 12 3.128 12H0.776C0.626667 12 0.552 11.9147 0.552 11.744V0.351999C0.552 0.277333 0.568 0.224 0.6 0.191999C0.642667 0.149333 0.706667 0.127999 0.792 0.127999ZM2.248 1.296C2.14133 1.296 2.088 1.37067 2.088 1.52V10.672C2.088 10.7893 2.152 10.848 2.28 10.848H2.888C4.072 10.848 5.032 10.6933 5.768 10.384C6.504 10.064 7.04267 9.552 7.384 8.848C7.736 8.144 7.912 7.21067 7.912 6.048C7.912 4.832 7.73067 3.88267 7.368 3.2C7.016 2.50667 6.472 2.016 5.736 1.728C5.01067 1.44 4.088 1.296 2.968 1.296H2.248ZM12.6749 8.288C12.6749 8.81067 12.7975 9.29067 13.0429 9.728C13.2989 10.1547 13.6349 10.496 14.0509 10.752C14.4775 11.008 14.9522 11.136 15.4749 11.136C16.0082 11.136 16.4829 11.0293 16.8989 10.816C17.3149 10.592 17.6722 10.256 17.9709 9.808C18.0135 9.76533 18.0455 9.744 18.0669 9.744C18.0989 9.73333 18.1415 9.73867 18.1949 9.76L18.8669 10.096C18.9629 10.1493 18.9735 10.224 18.8989 10.32C18.6109 10.7467 18.2909 11.0987 17.9389 11.376C17.5975 11.6427 17.2135 11.84 16.7869 11.968C16.3602 12.096 15.8802 12.16 15.3469 12.16C14.5575 12.16 13.8589 11.9787 13.2509 11.616C12.6429 11.2533 12.1629 10.7467 11.8109 10.096C11.4589 9.44533 11.2829 8.69333 11.2829 7.84C11.2829 6.912 11.4589 6.11733 11.8109 5.456C12.1735 4.784 12.6589 4.26667 13.2669 3.904C13.8855 3.54133 14.5735 3.36 15.3309 3.36C16.1095 3.36 16.7869 3.53067 17.3629 3.872C17.9389 4.21333 18.3869 4.70933 18.7069 5.36C19.0269 6.01067 19.1869 6.79467 19.1869 7.712C19.1869 7.78667 19.1762 7.86133 19.1549 7.936C19.1442 8.01067 19.0749 8.048 18.9469 8.048H12.8189C12.7762 8.048 12.7389 8.07467 12.7069 8.128C12.6855 8.17067 12.6749 8.224 12.6749 8.288ZM17.5709 7.168C17.6882 7.168 17.7629 7.15733 17.7949 7.136C17.8269 7.104 17.8429 7.04 17.8429 6.944C17.8429 6.48533 17.7415 6.05867 17.5389 5.664C17.3469 5.25867 17.0642 4.93333 16.6909 4.688C16.3282 4.44267 15.8855 4.32 15.3629 4.32C14.7869 4.32 14.3015 4.45867 13.9069 4.736C13.5122 5.00267 13.2135 5.35467 13.0109 5.792C12.8082 6.22933 12.7069 6.688 12.7069 7.168H17.5709ZM24.5958 3.36C25.1504 3.36 25.6358 3.45067 26.0518 3.632C26.4784 3.80267 26.8411 4.04267 27.1398 4.352C27.4491 4.65067 27.7051 4.98133 27.9078 5.344C27.9718 5.472 27.9451 5.552 27.8278 5.584L26.9478 5.792C26.8731 5.824 26.8038 5.792 26.7398 5.696C26.5264 5.38667 26.3131 5.136 26.0998 4.944C25.8971 4.752 25.6784 4.608 25.4438 4.512C25.2091 4.40533 24.9531 4.352 24.6758 4.352C24.1318 4.352 23.6518 4.49067 23.2358 4.768C22.8304 5.03467 22.5158 5.424 22.2918 5.936C22.0678 6.448 21.9557 7.056 21.9557 7.76C21.9557 8.47467 22.0678 9.088 22.2918 9.6C22.5264 10.112 22.8464 10.5013 23.2518 10.768C23.6678 11.0347 24.1531 11.168 24.7078 11.168C25.2198 11.168 25.6624 11.04 26.0358 10.784C26.4091 10.528 26.7504 10.1547 27.0598 9.664C27.0918 9.61067 27.1184 9.584 27.1398 9.584C27.1718 9.57333 27.2144 9.57867 27.2678 9.6L27.9558 9.856C28.0304 9.888 28.0518 9.95733 28.0198 10.064C27.8598 10.3413 27.6731 10.608 27.4598 10.864C27.2464 11.12 26.9958 11.344 26.7078 11.536C26.4304 11.728 26.1158 11.8827 25.7638 12C25.4118 12.1067 25.0224 12.16 24.5958 12.16C23.8064 12.16 23.1078 11.9787 22.4998 11.616C21.9024 11.2427 21.4331 10.7307 21.0918 10.08C20.7504 9.41867 20.5798 8.656 20.5798 7.792C20.5798 6.91733 20.7504 6.14933 21.0918 5.488C21.4438 4.82667 21.9184 4.30933 22.5158 3.936C23.1238 3.552 23.8171 3.36 24.5958 3.36ZM33.1903 12.16C32.3903 12.16 31.6809 11.9787 31.0623 11.616C30.4543 11.2427 29.9796 10.7307 29.6383 10.08C29.3076 9.41867 29.1423 8.66133 29.1423 7.808C29.1423 6.92267 29.3129 6.14933 29.6543 5.488C30.0063 4.816 30.4863 4.29333 31.0943 3.92C31.7023 3.54667 32.4063 3.36 33.2063 3.36C34.0169 3.36 34.7209 3.552 35.3183 3.936C35.9263 4.30933 36.3956 4.832 36.7263 5.504C37.0676 6.16533 37.2383 6.928 37.2383 7.792C37.2383 8.64533 37.0676 9.40267 36.7263 10.064C36.3849 10.7147 35.9103 11.2267 35.3023 11.6C34.7049 11.9733 34.0009 12.16 33.1903 12.16ZM33.2223 11.152C33.7769 11.152 34.2516 11.0187 34.6463 10.752C35.0409 10.4747 35.3396 10.0853 35.5423 9.584C35.7556 9.072 35.8623 8.464 35.8623 7.76C35.8623 7.056 35.7556 6.45333 35.5423 5.952C35.3289 5.44 35.0249 5.04533 34.6303 4.768C34.2356 4.49067 33.7609 4.352 33.2063 4.352C32.6623 4.352 32.1876 4.49067 31.7823 4.768C31.3769 5.04533 31.0623 5.44 30.8383 5.952C30.6249 6.45333 30.5182 7.056 30.5182 7.76C30.5182 8.45333 30.6249 9.056 30.8383 9.568C31.0623 10.08 31.3769 10.4747 31.7823 10.752C32.1876 11.0187 32.6676 11.152 33.2223 11.152ZM39.4404 12C39.3657 12 39.307 11.984 39.2644 11.952C39.2324 11.9093 39.2164 11.856 39.2164 11.792V3.728C39.2164 3.58933 39.275 3.52 39.3924 3.52H40.3204C40.4377 3.52 40.4964 3.57867 40.4964 3.696V4.736C40.4964 4.8 40.5124 4.83733 40.5444 4.848C40.5764 4.85867 40.619 4.83733 40.6724 4.784C40.9497 4.45333 41.2217 4.18667 41.4884 3.984C41.7657 3.77067 42.043 3.616 42.3204 3.52C42.5977 3.41333 42.875 3.36 43.1524 3.36C43.5257 3.36 43.7124 3.42933 43.7124 3.568V4.528C43.7124 4.63467 43.6644 4.67733 43.5684 4.656C43.4724 4.64533 43.3604 4.63467 43.2324 4.624C43.115 4.61333 42.987 4.608 42.8484 4.608C42.6137 4.608 42.363 4.66133 42.0964 4.768C41.8297 4.864 41.579 5.00267 41.3444 5.184C41.1204 5.36533 40.9337 5.568 40.7844 5.792C40.635 6.016 40.5604 6.24 40.5604 6.464V11.76C40.5604 11.92 40.4804 12 40.3204 12H39.4404ZM57.7073 3.584C57.7073 4.37333 57.5259 5.024 57.1633 5.536C56.8006 6.048 56.3046 6.42667 55.6753 6.672C55.0459 6.91733 54.3153 7.04 53.4833 7.04H50.7633C50.6673 7.04 50.6193 7.088 50.6193 7.184V11.76C50.6193 11.92 50.5393 12 50.3793 12H49.2913C49.2166 12 49.1633 11.984 49.1313 11.952C49.0993 11.92 49.0833 11.8667 49.0833 11.792V0.351999C49.0833 0.202666 49.1473 0.127999 49.2753 0.127999H53.3073C54.1499 0.127999 54.9019 0.245333 55.5633 0.48C56.2246 0.714666 56.7473 1.088 57.1313 1.6C57.5153 2.112 57.7073 2.77333 57.7073 3.584ZM56.1393 3.536C56.1393 2.992 56.0166 2.55467 55.7713 2.224C55.5366 1.89333 55.2006 1.65867 54.7633 1.52C54.3366 1.37067 53.8246 1.296 53.2273 1.296H50.8273C50.6886 1.296 50.6193 1.36 50.6193 1.488V5.648C50.6193 5.79733 50.6673 5.872 50.7633 5.872H53.3393C54.1819 5.872 54.8593 5.68533 55.3713 5.312C55.8833 4.93867 56.1393 4.34667 56.1393 3.536ZM61.1701 11.728C61.1701 11.8347 61.1488 11.9093 61.1061 11.952C61.0635 11.984 60.9888 12 60.8821 12H60.0501C59.8901 12 59.8101 11.9253 59.8101 11.776L59.8261 0.351999C59.8261 0.202666 59.8901 0.127999 60.0181 0.127999H60.9781C61.1061 0.127999 61.1701 0.197333 61.1701 0.335999V11.728ZM68.5183 10.976C68.1236 11.36 67.6916 11.6533 67.2223 11.856C66.7636 12.0587 66.2463 12.16 65.6703 12.16C64.8383 12.16 64.1823 11.9467 63.7023 11.52C63.2329 11.0933 62.9983 10.5333 62.9983 9.84C62.9983 9.27467 63.1583 8.78933 63.4783 8.384C63.7983 7.968 64.2729 7.64267 64.9023 7.408C65.5316 7.16267 66.3049 7.01333 67.2223 6.96L68.4703 6.864C68.5343 6.85333 68.5929 6.832 68.6463 6.8C68.6996 6.768 68.7263 6.70933 68.7263 6.624V6.192C68.7263 5.616 68.5449 5.16267 68.1823 4.832C67.8303 4.49067 67.3503 4.32 66.7423 4.32C66.2729 4.32 65.8463 4.42667 65.4623 4.64C65.0889 4.85333 64.7529 5.17333 64.4543 5.6C64.4116 5.65333 64.3743 5.69067 64.3423 5.712C64.3209 5.72267 64.2783 5.71733 64.2143 5.696L63.3503 5.408C63.3183 5.38667 63.2916 5.36 63.2703 5.328C63.2596 5.296 63.2756 5.23733 63.3183 5.152C63.6383 4.59733 64.0863 4.16 64.6623 3.84C65.2489 3.52 65.9636 3.36 66.8063 3.36C67.5209 3.36 68.1129 3.472 68.5823 3.696C69.0623 3.90933 69.4196 4.224 69.6543 4.64C69.8996 5.04533 70.0223 5.53067 70.0223 6.096V11.76C70.0223 11.856 70.0063 11.92 69.9743 11.952C69.9423 11.984 69.8889 12 69.8143 12H68.9983C68.9236 12 68.8703 11.9787 68.8383 11.936C68.8063 11.8827 68.7849 11.8187 68.7743 11.744L68.7583 11.008C68.7263 10.8587 68.6463 10.848 68.5183 10.976ZM68.7263 7.936C68.7263 7.75467 68.6516 7.66933 68.5023 7.68L67.4463 7.776C66.9556 7.79733 66.5183 7.86133 66.1343 7.968C65.7503 8.064 65.4249 8.192 65.1583 8.352C64.8916 8.512 64.6889 8.704 64.5503 8.928C64.4116 9.14133 64.3423 9.392 64.3423 9.68C64.3423 10.1493 64.5023 10.5173 64.8223 10.784C65.1529 11.04 65.5956 11.168 66.1503 11.168C66.4916 11.168 66.8169 11.1093 67.1263 10.992C67.4463 10.864 67.7236 10.704 67.9583 10.512C68.2036 10.3093 68.3903 10.1013 68.5183 9.888C68.6569 9.67467 68.7263 9.46667 68.7263 9.264V7.936ZM74.4408 4.528C74.3554 4.528 74.3128 4.57067 74.3128 4.656V9.728C74.3128 10.2293 74.3981 10.5653 74.5688 10.736C74.7394 10.9067 74.9954 10.992 75.3368 10.992H76.4408C76.4941 10.992 76.5368 11.008 76.5688 11.04C76.6008 11.0613 76.6168 11.104 76.6168 11.168L76.6008 11.712C76.6008 11.8187 76.5368 11.888 76.4088 11.92C76.3021 11.9413 76.1474 11.9573 75.9448 11.968C75.7528 11.9787 75.5608 11.9893 75.3688 12C75.1874 12 75.0328 12 74.9048 12C74.2328 12 73.7421 11.8453 73.4328 11.536C73.1234 11.216 72.9688 10.7147 72.9688 10.032V4.688C72.9688 4.58133 72.9154 4.528 72.8088 4.528H71.5288C71.4114 4.528 71.3528 4.46933 71.3528 4.352V3.68C71.3528 3.57333 71.4061 3.52 71.5128 3.52H72.8728C72.9474 3.52 72.9848 3.47733 72.9848 3.392L73.1608 0.848C73.1714 0.709333 73.2301 0.639999 73.3368 0.639999H74.1368C74.2648 0.639999 74.3288 0.714666 74.3288 0.863999V3.392C74.3288 3.47733 74.3714 3.52 74.4568 3.52H76.4728C76.5901 3.52 76.6488 3.568 76.6488 3.664V4.352C76.6488 4.46933 76.5901 4.528 76.4728 4.528H74.4408ZM79.0811 8.288C79.0811 8.81067 79.2038 9.29067 79.4491 9.728C79.7051 10.1547 80.0411 10.496 80.4571 10.752C80.8838 11.008 81.3585 11.136 81.8811 11.136C82.4145 11.136 82.8891 11.0293 83.3051 10.816C83.7211 10.592 84.0785 10.256 84.3771 9.808C84.4198 9.76533 84.4518 9.744 84.4731 9.744C84.5051 9.73333 84.5478 9.73867 84.6011 9.76L85.2731 10.096C85.3691 10.1493 85.3798 10.224 85.3051 10.32C85.0171 10.7467 84.6971 11.0987 84.3451 11.376C84.0038 11.6427 83.6198 11.84 83.1931 11.968C82.7665 12.096 82.2865 12.16 81.7531 12.16C80.9638 12.16 80.2651 11.9787 79.6571 11.616C79.0491 11.2533 78.5691 10.7467 78.2171 10.096C77.8651 9.44533 77.6891 8.69333 77.6891 7.84C77.6891 6.912 77.8651 6.11733 78.2171 5.456C78.5798 4.784 79.0651 4.26667 79.6731 3.904C80.2918 3.54133 80.9798 3.36 81.7371 3.36C82.5158 3.36 83.1931 3.53067 83.7691 3.872C84.3451 4.21333 84.7931 4.70933 85.1131 5.36C85.4331 6.01067 85.5931 6.79467 85.5931 7.712C85.5931 7.78667 85.5825 7.86133 85.5611 7.936C85.5505 8.01067 85.4811 8.048 85.3531 8.048H79.2251C79.1825 8.048 79.1451 8.07467 79.1131 8.128C79.0918 8.17067 79.0811 8.224 79.0811 8.288ZM83.9771 7.168C84.0945 7.168 84.1691 7.15733 84.2011 7.136C84.2331 7.104 84.2491 7.04 84.2491 6.944C84.2491 6.48533 84.1478 6.05867 83.9451 5.664C83.7531 5.25867 83.4705 4.93333 83.0971 4.688C82.7345 4.44267 82.2918 4.32 81.7691 4.32C81.1931 4.32 80.7078 4.45867 80.3131 4.736C79.9185 5.00267 79.6198 5.35467 79.4171 5.792C79.2145 6.22933 79.1131 6.688 79.1131 7.168H83.9771Z" fill="#6C6C6C"/>
</svg>
