<svg width="92" height="15" viewBox="0 0 92 15" fill="none" xmlns="http://www.w3.org/2000/svg">
<path d="M0.776 12C0.626667 12 0.552 11.92 0.552 11.76V0.351999C0.552 0.202666 0.616 0.127999 0.744 0.127999H2.28C2.36533 0.127999 2.424 0.138666 2.456 0.16C2.49867 0.181333 2.53067 0.229333 2.552 0.304L6.104 9.472C6.14667 9.568 6.18933 9.616 6.232 9.616C6.27467 9.60533 6.31733 9.552 6.36 9.456L9.912 0.335999C9.95467 0.197333 10.0347 0.127999 10.152 0.127999H11.768C11.8853 0.127999 11.944 0.197333 11.944 0.335999V11.76C11.944 11.92 11.864 12 11.704 12H10.648C10.5627 12 10.4987 11.984 10.456 11.952C10.424 11.92 10.408 11.8667 10.408 11.792V2.64C10.408 2.58667 10.3973 2.56533 10.376 2.576C10.3547 2.576 10.3387 2.59733 10.328 2.64L6.808 11.792C6.75467 11.9307 6.65333 12 6.504 12H5.736C5.56533 12 5.45867 11.936 5.416 11.808L1.944 2.736C1.92267 2.68267 1.90133 2.66133 1.88 2.672C1.86933 2.672 1.864 2.69333 1.864 2.736V11.792C1.864 11.8667 1.848 11.92 1.816 11.952C1.784 11.984 1.72533 12 1.64 12H0.776ZM16.076 11.728C16.076 11.8347 16.0547 11.9093 16.012 11.952C15.98 11.984 15.9053 12 15.788 12H14.972C14.876 12 14.812 11.984 14.78 11.952C14.748 11.92 14.732 11.8613 14.732 11.776V3.744C14.732 3.59467 14.796 3.52 14.924 3.52H15.9C16.0173 3.52 16.076 3.58933 16.076 3.728V11.728ZM16.14 1.696C16.14 1.89867 16.044 2 15.852 2H14.924C14.828 2 14.764 1.97867 14.732 1.936C14.7 1.88267 14.684 1.81333 14.684 1.728V0.384C14.684 0.213333 14.7587 0.127999 14.908 0.127999H15.916C16.0653 0.127999 16.14 0.207999 16.14 0.367999V1.696ZM18.7841 12C18.6348 12 18.5601 11.9307 18.5601 11.792V3.728C18.5601 3.58933 18.6188 3.52 18.7361 3.52H19.6961C19.8135 3.52 19.8721 3.57867 19.8721 3.696V4.624C19.8721 4.67733 19.8828 4.70933 19.9041 4.72C19.9255 4.73067 19.9628 4.71467 20.0161 4.672C20.3681 4.39467 20.6935 4.16 20.9921 3.968C21.3015 3.76533 21.6161 3.616 21.9361 3.52C22.2561 3.41333 22.5975 3.36 22.9601 3.36C23.7921 3.36 24.4268 3.584 24.8641 4.032C25.3121 4.48 25.5361 5.06133 25.5361 5.776V11.744C25.5361 11.9147 25.4561 12 25.2961 12H24.4001C24.3255 12 24.2721 11.984 24.2401 11.952C24.2081 11.9093 24.1921 11.856 24.1921 11.792V6.08C24.1921 5.55733 24.0588 5.152 23.7921 4.864C23.5255 4.56533 23.1041 4.416 22.5281 4.416C22.2188 4.416 21.9255 4.46933 21.6481 4.576C21.3815 4.672 21.1095 4.816 20.8321 5.008C20.5548 5.18933 20.2455 5.424 19.9041 5.712V11.76C19.9041 11.92 19.8241 12 19.6641 12H18.7841ZM29.9408 4.528C29.8554 4.528 29.8128 4.57067 29.8128 4.656V9.728C29.8128 10.2293 29.8981 10.5653 30.0688 10.736C30.2394 10.9067 30.4954 10.992 30.8368 10.992H31.9408C31.9941 10.992 32.0368 11.008 32.0688 11.04C32.1008 11.0613 32.1168 11.104 32.1168 11.168L32.1008 11.712C32.1008 11.8187 32.0368 11.888 31.9088 11.92C31.8021 11.9413 31.6474 11.9573 31.4448 11.968C31.2528 11.9787 31.0608 11.9893 30.8688 12C30.6874 12 30.5328 12 30.4048 12C29.7328 12 29.2421 11.8453 28.9328 11.536C28.6234 11.216 28.4688 10.7147 28.4688 10.032V4.688C28.4688 4.58133 28.4154 4.528 28.3088 4.528H27.0288C26.9114 4.528 26.8528 4.46933 26.8528 4.352V3.68C26.8528 3.57333 26.9061 3.52 27.0128 3.52H28.3728C28.4474 3.52 28.4848 3.47733 28.4848 3.392L28.6608 0.848C28.6714 0.709333 28.7301 0.639999 28.8368 0.639999H29.6368C29.7648 0.639999 29.8288 0.714666 29.8288 0.863999V3.392C29.8288 3.47733 29.8714 3.52 29.9568 3.52H31.9728C32.0901 3.52 32.1488 3.568 32.1488 3.664V4.352C32.1488 4.46933 32.0901 4.528 31.9728 4.528H29.9408ZM46.2541 3.584C46.2541 4.37333 46.0728 5.024 45.7101 5.536C45.3475 6.048 44.8515 6.42667 44.2221 6.672C43.5928 6.91733 42.8621 7.04 42.0301 7.04H39.3101C39.2141 7.04 39.1661 7.088 39.1661 7.184V11.76C39.1661 11.92 39.0861 12 38.9261 12H37.8381C37.7635 12 37.7101 11.984 37.6781 11.952C37.6461 11.92 37.6301 11.8667 37.6301 11.792V0.351999C37.6301 0.202666 37.6941 0.127999 37.8221 0.127999H41.8541C42.6968 0.127999 43.4488 0.245333 44.1101 0.48C44.7715 0.714666 45.2941 1.088 45.6781 1.6C46.0621 2.112 46.2541 2.77333 46.2541 3.584ZM44.6861 3.536C44.6861 2.992 44.5635 2.55467 44.3181 2.224C44.0835 1.89333 43.7475 1.65867 43.3101 1.52C42.8835 1.37067 42.3715 1.296 41.7741 1.296H39.3741C39.2355 1.296 39.1661 1.36 39.1661 1.488V5.648C39.1661 5.79733 39.2141 5.872 39.3101 5.872H41.8861C42.7288 5.872 43.4061 5.68533 43.9181 5.312C44.4301 4.93867 44.6861 4.34667 44.6861 3.536ZM51.0809 12.16C50.2809 12.16 49.5715 11.9787 48.9529 11.616C48.3449 11.2427 47.8702 10.7307 47.5289 10.08C47.1982 9.41867 47.0329 8.66133 47.0329 7.808C47.0329 6.92267 47.2035 6.14933 47.5449 5.488C47.8969 4.816 48.3769 4.29333 48.9849 3.92C49.5929 3.54667 50.2969 3.36 51.0969 3.36C51.9075 3.36 52.6115 3.552 53.2089 3.936C53.8169 4.30933 54.2862 4.832 54.6169 5.504C54.9582 6.16533 55.1289 6.928 55.1289 7.792C55.1289 8.64533 54.9582 9.40267 54.6169 10.064C54.2755 10.7147 53.8009 11.2267 53.1929 11.6C52.5955 11.9733 51.8915 12.16 51.0809 12.16ZM51.1129 11.152C51.6675 11.152 52.1422 11.0187 52.5369 10.752C52.9315 10.4747 53.2302 10.0853 53.4329 9.584C53.6462 9.072 53.7529 8.464 53.7529 7.76C53.7529 7.056 53.6462 6.45333 53.4329 5.952C53.2195 5.44 52.9155 5.04533 52.5209 4.768C52.1262 4.49067 51.6515 4.352 51.0969 4.352C50.5529 4.352 50.0782 4.49067 49.6729 4.768C49.2675 5.04533 48.9529 5.44 48.7289 5.952C48.5155 6.45333 48.4089 7.056 48.4089 7.76C48.4089 8.45333 48.5155 9.056 48.7289 9.568C48.9529 10.08 49.2675 10.4747 49.6729 10.752C50.0782 11.0187 50.5582 11.152 51.1129 11.152ZM59.1439 4.528C59.0585 4.528 59.0159 4.57067 59.0159 4.656V9.728C59.0159 10.2293 59.1012 10.5653 59.2719 10.736C59.4425 10.9067 59.6985 10.992 60.0399 10.992H61.1439C61.1972 10.992 61.2399 11.008 61.2719 11.04C61.3039 11.0613 61.3199 11.104 61.3199 11.168L61.3039 11.712C61.3039 11.8187 61.2399 11.888 61.1119 11.92C61.0052 11.9413 60.8505 11.9573 60.6479 11.968C60.4559 11.9787 60.2639 11.9893 60.0719 12C59.8905 12 59.7359 12 59.6079 12C58.9359 12 58.4452 11.8453 58.1359 11.536C57.8265 11.216 57.6719 10.7147 57.6719 10.032V4.688C57.6719 4.58133 57.6185 4.528 57.5119 4.528H56.2319C56.1145 4.528 56.0559 4.46933 56.0559 4.352V3.68C56.0559 3.57333 56.1092 3.52 56.2159 3.52H57.5759C57.6505 3.52 57.6879 3.47733 57.6879 3.392L57.8639 0.848C57.8745 0.709333 57.9332 0.639999 58.0399 0.639999H58.8399C58.9679 0.639999 59.0319 0.714666 59.0319 0.863999V3.392C59.0319 3.47733 59.0745 3.52 59.1599 3.52H61.1759C61.2932 3.52 61.3519 3.568 61.3519 3.664V4.352C61.3519 4.46933 61.2932 4.528 61.1759 4.528H59.1439ZM65.3314 4.528C65.246 4.528 65.2034 4.57067 65.2034 4.656V9.728C65.2034 10.2293 65.2887 10.5653 65.4594 10.736C65.63 10.9067 65.886 10.992 66.2274 10.992H67.3314C67.3847 10.992 67.4274 11.008 67.4594 11.04C67.4914 11.0613 67.5074 11.104 67.5074 11.168L67.4914 11.712C67.4914 11.8187 67.4274 11.888 67.2994 11.92C67.1927 11.9413 67.038 11.9573 66.8354 11.968C66.6434 11.9787 66.4514 11.9893 66.2594 12C66.078 12 65.9234 12 65.7954 12C65.1234 12 64.6327 11.8453 64.3234 11.536C64.014 11.216 63.8594 10.7147 63.8594 10.032V4.688C63.8594 4.58133 63.806 4.528 63.6994 4.528H62.4194C62.302 4.528 62.2434 4.46933 62.2434 4.352V3.68C62.2434 3.57333 62.2967 3.52 62.4034 3.52H63.7634C63.838 3.52 63.8754 3.47733 63.8754 3.392L64.0514 0.848C64.062 0.709333 64.1207 0.639999 64.2274 0.639999H65.0274C65.1554 0.639999 65.2194 0.714666 65.2194 0.863999V3.392C65.2194 3.47733 65.262 3.52 65.3474 3.52H67.3634C67.4807 3.52 67.5394 3.568 67.5394 3.664V4.352C67.5394 4.46933 67.4807 4.528 67.3634 4.528H65.3314ZM69.9718 8.288C69.9718 8.81067 70.0944 9.29067 70.3398 9.728C70.5958 10.1547 70.9318 10.496 71.3478 10.752C71.7744 11.008 72.2491 11.136 72.7718 11.136C73.3051 11.136 73.7798 11.0293 74.1958 10.816C74.6118 10.592 74.9691 10.256 75.2678 9.808C75.3104 9.76533 75.3424 9.744 75.3638 9.744C75.3958 9.73333 75.4384 9.73867 75.4918 9.76L76.1638 10.096C76.2598 10.1493 76.2704 10.224 76.1958 10.32C75.9078 10.7467 75.5878 11.0987 75.2358 11.376C74.8944 11.6427 74.5104 11.84 74.0838 11.968C73.6571 12.096 73.1771 12.16 72.6438 12.16C71.8544 12.16 71.1558 11.9787 70.5478 11.616C69.9398 11.2533 69.4598 10.7467 69.1078 10.096C68.7558 9.44533 68.5798 8.69333 68.5798 7.84C68.5798 6.912 68.7558 6.11733 69.1078 5.456C69.4704 4.784 69.9558 4.26667 70.5638 3.904C71.1824 3.54133 71.8704 3.36 72.6278 3.36C73.4064 3.36 74.0838 3.53067 74.6598 3.872C75.2358 4.21333 75.6838 4.70933 76.0038 5.36C76.3238 6.01067 76.4838 6.79467 76.4838 7.712C76.4838 7.78667 76.4731 7.86133 76.4518 7.936C76.4411 8.01067 76.3718 8.048 76.2438 8.048H70.1158C70.0731 8.048 70.0358 8.07467 70.0038 8.128C69.9824 8.17067 69.9718 8.224 69.9718 8.288ZM74.8678 7.168C74.9851 7.168 75.0598 7.15733 75.0918 7.136C75.1238 7.104 75.1398 7.04 75.1398 6.944C75.1398 6.48533 75.0384 6.05867 74.8358 5.664C74.6438 5.25867 74.3611 4.93333 73.9878 4.688C73.6251 4.44267 73.1824 4.32 72.6598 4.32C72.0838 4.32 71.5984 4.45867 71.2038 4.736C70.8091 5.00267 70.5104 5.35467 70.3078 5.792C70.1051 6.22933 70.0038 6.688 70.0038 7.168H74.8678ZM78.5966 12C78.522 12 78.4633 11.984 78.4206 11.952C78.3886 11.9093 78.3726 11.856 78.3726 11.792V3.728C78.3726 3.58933 78.4313 3.52 78.5486 3.52H79.4766C79.594 3.52 79.6526 3.57867 79.6526 3.696V4.736C79.6526 4.8 79.6686 4.83733 79.7006 4.848C79.7326 4.85867 79.7753 4.83733 79.8286 4.784C80.106 4.45333 80.378 4.18667 80.6446 3.984C80.922 3.77067 81.1993 3.616 81.4766 3.52C81.754 3.41333 82.0313 3.36 82.3086 3.36C82.682 3.36 82.8686 3.42933 82.8686 3.568V4.528C82.8686 4.63467 82.8206 4.67733 82.7246 4.656C82.6286 4.64533 82.5166 4.63467 82.3886 4.624C82.2713 4.61333 82.1433 4.608 82.0046 4.608C81.77 4.608 81.5193 4.66133 81.2526 4.768C80.986 4.864 80.7353 5.00267 80.5006 5.184C80.2766 5.36533 80.09 5.568 79.9406 5.792C79.7913 6.016 79.7166 6.24 79.7166 6.464V11.76C79.7166 11.92 79.6366 12 79.4766 12H78.5966ZM84.9616 14.64C84.6523 14.64 84.4123 14.6293 84.2416 14.608C84.071 14.5867 83.9856 14.528 83.9856 14.432V13.808C83.9856 13.7333 84.0123 13.68 84.0656 13.648C84.1296 13.616 84.2523 13.6 84.4336 13.6H85.4416C85.6763 13.6 85.8896 13.52 86.0816 13.36C86.2736 13.2107 86.4336 13.0187 86.5616 12.784C86.6896 12.5493 86.775 12.3093 86.8176 12.064C86.8603 11.8293 86.8443 11.6213 86.7696 11.44L83.7136 3.792C83.6923 3.71733 83.6923 3.65333 83.7136 3.6C83.7456 3.54667 83.8043 3.52 83.8896 3.52H84.8816C84.9456 3.52 84.999 3.536 85.0416 3.568C85.0843 3.58933 85.1163 3.632 85.1376 3.696L87.5216 9.904C87.5643 10 87.6123 10.048 87.6656 10.048C87.719 10.048 87.767 9.984 87.8096 9.856L90.1616 3.696C90.1936 3.632 90.2256 3.58933 90.2576 3.568C90.2896 3.536 90.3323 3.52 90.3856 3.52H91.1376C91.2123 3.52 91.2656 3.54667 91.2976 3.6C91.3296 3.64267 91.3296 3.696 91.2976 3.76L87.7776 12.752C87.6283 13.136 87.463 13.4507 87.2816 13.696C87.1003 13.9413 86.8923 14.128 86.6576 14.256C86.4336 14.3947 86.183 14.4907 85.9056 14.544C85.6283 14.608 85.3136 14.64 84.9616 14.64Z" fill="#6C6C6C"/>
</svg>
