<svg width="120" height="16" viewBox="0 0 120 16" fill="none" xmlns="http://www.w3.org/2000/svg">
<path d="M5.112 13.16C4.06667 13.16 3.16 12.9253 2.392 12.456C1.63467 11.9867 1.05333 11.304 0.648 10.408C0.242667 9.50133 0.0400001 8.40267 0.0400001 7.112C0.0400001 5.81067 0.248 4.70133 0.664 3.784C1.08 2.86667 1.66667 2.168 2.424 1.688C3.18133 1.208 4.08267 0.967999 5.128 0.967999C6.17333 0.967999 7.06933 1.208 7.816 1.688C8.57333 2.168 9.15467 2.86133 9.56 3.768C9.976 4.67467 10.184 5.784 10.184 7.096C10.184 8.38667 9.98133 9.48533 9.576 10.392C9.17067 11.288 8.584 11.976 7.816 12.456C7.05867 12.9253 6.15733 13.16 5.112 13.16ZM5.144 11.992C6.296 11.992 7.15467 11.5973 7.72 10.808C8.296 10.008 8.584 8.776 8.584 7.112C8.584 5.416 8.29067 4.16267 7.704 3.352C7.128 2.54133 6.26933 2.136 5.128 2.136C3.976 2.136 3.10667 2.54667 2.52 3.368C1.93333 4.17867 1.64 5.42667 1.64 7.112C1.64 8.76533 1.93333 9.992 2.52 10.792C3.10667 11.592 3.98133 11.992 5.144 11.992ZM12.6748 13C12.6001 13 12.5414 12.984 12.4988 12.952C12.4668 12.9093 12.4508 12.856 12.4508 12.792V4.728C12.4508 4.58933 12.5094 4.52 12.6268 4.52H13.5548C13.6721 4.52 13.7308 4.57867 13.7308 4.696V5.736C13.7308 5.8 13.7468 5.83733 13.7788 5.848C13.8108 5.85867 13.8534 5.83733 13.9068 5.784C14.1841 5.45333 14.4561 5.18667 14.7228 4.984C15.0001 4.77067 15.2774 4.616 15.5548 4.52C15.8321 4.41333 16.1094 4.36 16.3868 4.36C16.7601 4.36 16.9468 4.42933 16.9468 4.568V5.528C16.9468 5.63467 16.8988 5.67733 16.8028 5.656C16.7068 5.64533 16.5948 5.63467 16.4668 5.624C16.3494 5.61333 16.2214 5.608 16.0828 5.608C15.8481 5.608 15.5974 5.66133 15.3307 5.768C15.0641 5.864 14.8134 6.00267 14.5788 6.184C14.3548 6.36533 14.1681 6.568 14.0188 6.792C13.8694 7.016 13.7948 7.24 13.7948 7.464V12.76C13.7948 12.92 13.7148 13 13.5548 13H12.6748ZM23.362 11.976C22.9673 12.36 22.5353 12.6533 22.066 12.856C21.6073 13.0587 21.09 13.16 20.514 13.16C19.682 13.16 19.026 12.9467 18.546 12.52C18.0767 12.0933 17.842 11.5333 17.842 10.84C17.842 10.2747 18.002 9.78933 18.322 9.384C18.642 8.968 19.1167 8.64267 19.746 8.408C20.3753 8.16267 21.1487 8.01333 22.066 7.96L23.314 7.864C23.378 7.85333 23.4367 7.832 23.49 7.8C23.5433 7.768 23.57 7.70933 23.57 7.624V7.192C23.57 6.616 23.3887 6.16267 23.026 5.832C22.674 5.49067 22.194 5.32 21.586 5.32C21.1167 5.32 20.69 5.42667 20.306 5.64C19.9327 5.85333 19.5967 6.17333 19.298 6.6C19.2553 6.65333 19.218 6.69067 19.186 6.712C19.1647 6.72267 19.122 6.71733 19.058 6.696L18.194 6.408C18.162 6.38667 18.1353 6.36 18.114 6.328C18.1033 6.296 18.1193 6.23733 18.162 6.152C18.482 5.59733 18.93 5.16 19.506 4.84C20.0927 4.52 20.8073 4.36 21.65 4.36C22.3647 4.36 22.9567 4.472 23.426 4.696C23.906 4.90933 24.2633 5.224 24.498 5.64C24.7433 6.04533 24.866 6.53067 24.866 7.096V12.76C24.866 12.856 24.85 12.92 24.818 12.952C24.786 12.984 24.7327 13 24.658 13H23.842C23.7673 13 23.714 12.9787 23.682 12.936C23.65 12.8827 23.6287 12.8187 23.618 12.744L23.602 12.008C23.57 11.8587 23.49 11.848 23.362 11.976ZM23.57 8.936C23.57 8.75467 23.4953 8.66933 23.346 8.68L22.29 8.776C21.7993 8.79733 21.362 8.86133 20.978 8.968C20.594 9.064 20.2687 9.192 20.002 9.352C19.7353 9.512 19.5327 9.704 19.394 9.928C19.2553 10.1413 19.186 10.392 19.186 10.68C19.186 11.1493 19.346 11.5173 19.666 11.784C19.9967 12.04 20.4393 12.168 20.994 12.168C21.3353 12.168 21.6607 12.1093 21.97 11.992C22.29 11.864 22.5673 11.704 22.802 11.512C23.0473 11.3093 23.234 11.1013 23.362 10.888C23.5007 10.6747 23.57 10.4667 23.57 10.264V8.936ZM27.4716 13C27.3223 13 27.2476 12.9307 27.2476 12.792V4.728C27.2476 4.58933 27.3063 4.52 27.4236 4.52H28.3836C28.501 4.52 28.5596 4.57867 28.5596 4.696V5.624C28.5596 5.67733 28.5703 5.70933 28.5916 5.72C28.613 5.73067 28.6503 5.71467 28.7036 5.672C29.0556 5.39467 29.381 5.16 29.6796 4.968C29.989 4.76533 30.3036 4.616 30.6236 4.52C30.9436 4.41333 31.285 4.36 31.6476 4.36C32.4796 4.36 33.1143 4.584 33.5516 5.032C33.9996 5.48 34.2236 6.06133 34.2236 6.776V12.744C34.2236 12.9147 34.1436 13 33.9836 13H33.0876C33.013 13 32.9596 12.984 32.9276 12.952C32.8956 12.9093 32.8796 12.856 32.8796 12.792V7.08C32.8796 6.55733 32.7463 6.152 32.4796 5.864C32.213 5.56533 31.7916 5.416 31.2156 5.416C30.9063 5.416 30.613 5.46933 30.3356 5.576C30.069 5.672 29.797 5.816 29.5196 6.008C29.2423 6.18933 28.933 6.424 28.5916 6.712V12.76C28.5916 12.92 28.5116 13 28.3516 13H27.4716ZM44.2554 4.376C44.362 4.376 44.4367 4.39733 44.4794 4.44C44.5327 4.48267 44.5594 4.54667 44.5594 4.632V5.192C44.5594 5.288 44.5327 5.36267 44.4794 5.416C44.4367 5.46933 44.3567 5.49067 44.2394 5.48C44.0687 5.48 43.9194 5.49067 43.7914 5.512C43.6634 5.53333 43.5354 5.57067 43.4074 5.624C43.1514 5.72 43.0447 5.84267 43.0874 5.992C43.1407 6.10933 43.1994 6.25333 43.2634 6.424C43.3274 6.584 43.3594 6.80267 43.3594 7.08C43.3594 7.54933 43.2367 7.98133 42.9914 8.376C42.746 8.76 42.362 9.06933 41.8394 9.304C41.3274 9.53867 40.6767 9.656 39.8874 9.656C39.3434 9.656 38.9167 9.688 38.6074 9.752C38.298 9.816 38.0794 9.90133 37.9514 10.008C37.8234 10.1147 37.7594 10.2267 37.7594 10.344C37.7594 10.5147 37.8714 10.6373 38.0954 10.712C38.33 10.7867 38.7034 10.84 39.2154 10.872L41.2794 10.984C42.218 11.0373 42.906 11.2613 43.3434 11.656C43.7807 12.0507 43.9994 12.568 43.9994 13.208C43.9994 14.008 43.642 14.6373 42.9274 15.096C42.2234 15.5653 41.2154 15.8 39.9034 15.8C38.5487 15.8 37.514 15.6027 36.7994 15.208C36.0954 14.824 35.7434 14.2693 35.7434 13.544C35.7434 13.1707 35.8714 12.8347 36.1274 12.536C36.394 12.2373 36.7674 11.9707 37.2474 11.736C37.3647 11.6827 37.3647 11.624 37.2474 11.56C37.0127 11.4533 36.8314 11.3253 36.7034 11.176C36.5754 11.016 36.5114 10.8293 36.5114 10.616C36.5114 10.4667 36.5594 10.3173 36.6554 10.168C36.7514 10.0187 36.89 9.88 37.0714 9.752C37.2634 9.624 37.4927 9.512 37.7594 9.416C37.8234 9.39467 37.8554 9.368 37.8554 9.336C37.8554 9.304 37.8287 9.26667 37.7754 9.224C37.306 8.98933 36.9594 8.696 36.7354 8.344C36.5114 7.992 36.3994 7.57067 36.3994 7.08C36.3994 6.248 36.714 5.592 37.3434 5.112C37.9727 4.632 38.8634 4.392 40.0154 4.392C40.57 4.392 41.0394 4.456 41.4234 4.584C41.818 4.712 42.1487 4.888 42.4154 5.112C42.4794 5.16533 42.538 5.192 42.5914 5.192C42.6447 5.192 42.698 5.16533 42.7514 5.112C42.8794 4.99467 43.0234 4.88267 43.1834 4.776C43.3434 4.65867 43.514 4.56267 43.6954 4.488C43.8874 4.41333 44.074 4.376 44.2554 4.376ZM39.8874 8.808C40.634 8.808 41.1887 8.65867 41.5514 8.36C41.914 8.05067 42.0954 7.61867 42.0954 7.064C42.0954 6.49867 41.914 6.056 41.5514 5.736C41.1887 5.40533 40.634 5.24 39.8874 5.24C39.1727 5.24 38.618 5.40533 38.2234 5.736C37.8394 6.056 37.6474 6.49867 37.6474 7.064C37.6474 7.61867 37.8394 8.05067 38.2234 8.36C38.618 8.65867 39.1727 8.808 39.8874 8.808ZM38.4794 11.96C38.2874 11.9493 38.074 12.008 37.8394 12.136C37.6047 12.2533 37.3967 12.4187 37.2154 12.632C37.034 12.8453 36.9434 13.096 36.9434 13.384C36.9434 13.7147 37.0554 13.9973 37.2794 14.232C37.514 14.4773 37.8607 14.6587 38.3194 14.776C38.7887 14.904 39.3647 14.968 40.0474 14.968C40.9327 14.968 41.6047 14.8347 42.0634 14.568C42.522 14.312 42.7514 13.912 42.7514 13.368C42.7514 13.016 42.6287 12.728 42.3834 12.504C42.1487 12.28 41.738 12.152 41.1514 12.12L38.4794 11.96ZM46.8311 9.288C46.8311 9.81067 46.9538 10.2907 47.1991 10.728C47.4551 11.1547 47.7911 11.496 48.2071 11.752C48.6338 12.008 49.1085 12.136 49.6311 12.136C50.1645 12.136 50.6391 12.0293 51.0551 11.816C51.4711 11.592 51.8285 11.256 52.1271 10.808C52.1698 10.7653 52.2018 10.744 52.2231 10.744C52.2551 10.7333 52.2978 10.7387 52.3511 10.76L53.0231 11.096C53.1191 11.1493 53.1298 11.224 53.0551 11.32C52.7671 11.7467 52.4471 12.0987 52.0951 12.376C51.7538 12.6427 51.3698 12.84 50.9431 12.968C50.5165 13.096 50.0365 13.16 49.5031 13.16C48.7138 13.16 48.0151 12.9787 47.4071 12.616C46.7991 12.2533 46.3191 11.7467 45.9671 11.096C45.6151 10.4453 45.4391 9.69333 45.4391 8.84C45.4391 7.912 45.6151 7.11733 45.9671 6.456C46.3298 5.784 46.8151 5.26667 47.4231 4.904C48.0418 4.54133 48.7298 4.36 49.4871 4.36C50.2658 4.36 50.9431 4.53067 51.5191 4.872C52.0951 5.21333 52.5431 5.70933 52.8631 6.36C53.1831 7.01067 53.3431 7.79467 53.3431 8.712C53.3431 8.78667 53.3325 8.86133 53.3111 8.936C53.3005 9.01067 53.2311 9.048 53.1031 9.048H46.9751C46.9325 9.048 46.8951 9.07467 46.8631 9.128C46.8418 9.17067 46.8311 9.224 46.8311 9.288ZM51.7271 8.168C51.8445 8.168 51.9191 8.15733 51.9511 8.136C51.9831 8.104 51.9991 8.04 51.9991 7.944C51.9991 7.48533 51.8978 7.05867 51.6951 6.664C51.5031 6.25867 51.2205 5.93333 50.8471 5.688C50.4845 5.44267 50.0418 5.32 49.5191 5.32C48.9431 5.32 48.4578 5.45867 48.0631 5.736C47.6685 6.00267 47.3698 6.35467 47.1671 6.792C46.9645 7.22933 46.8631 7.688 46.8631 8.168H51.7271ZM63.4699 0.967999C64.0032 0.967999 64.5152 1.05867 65.0059 1.24C65.5072 1.41067 65.9552 1.64533 66.3499 1.944C66.7445 2.24267 67.0699 2.58933 67.3259 2.984C67.5819 3.37867 67.7419 3.8 67.8059 4.248C67.8272 4.344 67.8272 4.408 67.8059 4.44C67.7952 4.472 67.7579 4.488 67.6939 4.488L66.4939 4.584C66.4405 4.59467 66.4032 4.584 66.3819 4.552C66.3605 4.52 66.3445 4.47733 66.3339 4.424C66.1845 3.74133 65.8592 3.192 65.3579 2.776C64.8672 2.34933 64.2539 2.136 63.5179 2.136C62.4085 2.136 61.5552 2.54667 60.9579 3.368C60.3605 4.18933 60.0619 5.42667 60.0619 7.08C60.0619 8.68 60.3552 9.89067 60.9419 10.712C61.5285 11.5333 62.4139 11.944 63.5979 11.944C64.3552 11.944 64.9845 11.7627 65.4859 11.4C65.9979 11.0373 66.4085 10.456 66.7179 9.656C66.7499 9.592 66.8139 9.57067 66.9099 9.592L67.8539 9.816C67.8859 9.82667 67.9125 9.848 67.9339 9.88C67.9552 9.912 67.9552 9.96533 67.9339 10.04C67.8485 10.3493 67.7152 10.6533 67.5339 10.952C67.3632 11.2507 67.1499 11.5333 66.8939 11.8C66.6379 12.056 66.3392 12.2907 65.9979 12.504C65.6565 12.7067 65.2779 12.8667 64.8619 12.984C64.4565 13.1013 64.0139 13.16 63.5339 13.16C62.4779 13.16 61.5659 12.9147 60.7979 12.424C60.0405 11.9333 59.4592 11.2293 59.0539 10.312C58.6592 9.39467 58.4619 8.30667 58.4619 7.048C58.4619 5.78933 58.6592 4.70667 59.0539 3.8C59.4592 2.88267 60.0352 2.184 60.7819 1.704C61.5392 1.21333 62.4352 0.967999 63.4699 0.967999ZM70.8624 9.288C70.8624 9.81067 70.985 10.2907 71.2304 10.728C71.4864 11.1547 71.8224 11.496 72.2384 11.752C72.665 12.008 73.1397 12.136 73.6624 12.136C74.1957 12.136 74.6704 12.0293 75.0864 11.816C75.5024 11.592 75.8597 11.256 76.1584 10.808C76.201 10.7653 76.233 10.744 76.2544 10.744C76.2864 10.7333 76.329 10.7387 76.3824 10.76L77.0544 11.096C77.1504 11.1493 77.161 11.224 77.0864 11.32C76.7984 11.7467 76.4784 12.0987 76.1264 12.376C75.785 12.6427 75.401 12.84 74.9744 12.968C74.5477 13.096 74.0677 13.16 73.5344 13.16C72.745 13.16 72.0464 12.9787 71.4384 12.616C70.8304 12.2533 70.3504 11.7467 69.9984 11.096C69.6464 10.4453 69.4704 9.69333 69.4704 8.84C69.4704 7.912 69.6464 7.11733 69.9984 6.456C70.361 5.784 70.8464 5.26667 71.4544 4.904C72.073 4.54133 72.761 4.36 73.5184 4.36C74.297 4.36 74.9744 4.53067 75.5504 4.872C76.1264 5.21333 76.5744 5.70933 76.8944 6.36C77.2144 7.01067 77.3744 7.79467 77.3744 8.712C77.3744 8.78667 77.3637 8.86133 77.3424 8.936C77.3317 9.01067 77.2624 9.048 77.1344 9.048H71.0064C70.9637 9.048 70.9264 9.07467 70.8944 9.128C70.873 9.17067 70.8624 9.224 70.8624 9.288ZM75.7584 8.168C75.8757 8.168 75.9504 8.15733 75.9824 8.136C76.0144 8.104 76.0304 8.04 76.0304 7.944C76.0304 7.48533 75.929 7.05867 75.7264 6.664C75.5344 6.25867 75.2517 5.93333 74.8784 5.688C74.5157 5.44267 74.073 5.32 73.5504 5.32C72.9744 5.32 72.489 5.45867 72.0944 5.736C71.6997 6.00267 71.401 6.35467 71.1984 6.792C70.9957 7.22933 70.8944 7.688 70.8944 8.168H75.7584ZM79.4873 13C79.4126 13 79.3539 12.984 79.3113 12.952C79.2793 12.9093 79.2633 12.856 79.2633 12.792V4.728C79.2633 4.58933 79.3219 4.52 79.4393 4.52H80.3673C80.4846 4.52 80.5433 4.57867 80.5433 4.696V5.736C80.5433 5.8 80.5593 5.83733 80.5913 5.848C80.6233 5.85867 80.6659 5.83733 80.7193 5.784C80.9966 5.45333 81.2686 5.18667 81.5353 4.984C81.8126 4.77067 82.0899 4.616 82.3673 4.52C82.6446 4.41333 82.9219 4.36 83.1993 4.36C83.5726 4.36 83.7593 4.42933 83.7593 4.568V5.528C83.7593 5.63467 83.7113 5.67733 83.6153 5.656C83.5193 5.64533 83.4073 5.63467 83.2793 5.624C83.1619 5.61333 83.0339 5.608 82.8953 5.608C82.6606 5.608 82.4099 5.66133 82.1432 5.768C81.8766 5.864 81.6259 6.00267 81.3913 6.184C81.1673 6.36533 80.9806 6.568 80.8313 6.792C80.6819 7.016 80.6073 7.24 80.6073 7.464V12.76C80.6073 12.92 80.5273 13 80.3673 13H79.4873ZM90.1745 11.976C89.7798 12.36 89.3478 12.6533 88.8785 12.856C88.4198 13.0587 87.9025 13.16 87.3265 13.16C86.4945 13.16 85.8385 12.9467 85.3585 12.52C84.8892 12.0933 84.6545 11.5333 84.6545 10.84C84.6545 10.2747 84.8145 9.78933 85.1345 9.384C85.4545 8.968 85.9292 8.64267 86.5585 8.408C87.1878 8.16267 87.9612 8.01333 88.8785 7.96L90.1265 7.864C90.1905 7.85333 90.2492 7.832 90.3025 7.8C90.3558 7.768 90.3825 7.70933 90.3825 7.624V7.192C90.3825 6.616 90.2012 6.16267 89.8385 5.832C89.4865 5.49067 89.0065 5.32 88.3985 5.32C87.9292 5.32 87.5025 5.42667 87.1185 5.64C86.7452 5.85333 86.4092 6.17333 86.1105 6.6C86.0678 6.65333 86.0305 6.69067 85.9985 6.712C85.9772 6.72267 85.9345 6.71733 85.8705 6.696L85.0065 6.408C84.9745 6.38667 84.9478 6.36 84.9265 6.328C84.9158 6.296 84.9318 6.23733 84.9745 6.152C85.2945 5.59733 85.7425 5.16 86.3185 4.84C86.9052 4.52 87.6198 4.36 88.4625 4.36C89.1772 4.36 89.7692 4.472 90.2385 4.696C90.7185 4.90933 91.0758 5.224 91.3105 5.64C91.5558 6.04533 91.6785 6.53067 91.6785 7.096V12.76C91.6785 12.856 91.6625 12.92 91.6305 12.952C91.5985 12.984 91.5452 13 91.4705 13H90.6545C90.5798 13 90.5265 12.9787 90.4945 12.936C90.4625 12.8827 90.4412 12.8187 90.4305 12.744L90.4145 12.008C90.3825 11.8587 90.3025 11.848 90.1745 11.976ZM90.3825 8.936C90.3825 8.75467 90.3078 8.66933 90.1585 8.68L89.1025 8.776C88.6118 8.79733 88.1745 8.86133 87.7905 8.968C87.4065 9.064 87.0812 9.192 86.8145 9.352C86.5478 9.512 86.3452 9.704 86.2065 9.928C86.0678 10.1413 85.9985 10.392 85.9985 10.68C85.9985 11.1493 86.1585 11.5173 86.4785 11.784C86.8092 12.04 87.2518 12.168 87.8065 12.168C88.1478 12.168 88.4732 12.1093 88.7825 11.992C89.1025 11.864 89.3798 11.704 89.6145 11.512C89.8598 11.3093 90.0465 11.1013 90.1745 10.888C90.3132 10.6747 90.3825 10.4667 90.3825 10.264V8.936ZM94.2841 13C94.1348 13 94.0601 12.9307 94.0601 12.792V4.728C94.0601 4.58933 94.1188 4.52 94.2361 4.52H95.1961C95.3028 4.52 95.3561 4.57867 95.3561 4.696V5.624C95.3561 5.67733 95.3668 5.70933 95.3881 5.72C95.4201 5.73067 95.4628 5.71467 95.5161 5.672C95.8575 5.39467 96.1721 5.16 96.4601 4.968C96.7588 4.76533 97.0575 4.616 97.3561 4.52C97.6655 4.41333 97.9961 4.36 98.3481 4.36C98.9775 4.36 99.4788 4.504 99.8521 4.792C100.236 5.08 100.492 5.40533 100.62 5.768C100.641 5.81067 100.673 5.82667 100.716 5.816C100.759 5.80533 100.801 5.77867 100.844 5.736C101.185 5.448 101.505 5.20267 101.804 5C102.113 4.79733 102.423 4.64267 102.732 4.536C103.052 4.41867 103.388 4.36 103.74 4.36C104.519 4.36 105.121 4.584 105.548 5.032C105.975 5.46933 106.188 6.06133 106.188 6.808V12.744C106.188 12.9147 106.108 13 105.948 13H105.052C104.977 13 104.924 12.984 104.892 12.952C104.86 12.9093 104.844 12.856 104.844 12.792V7.08C104.844 6.55733 104.716 6.152 104.46 5.864C104.215 5.56533 103.825 5.416 103.292 5.416C102.983 5.416 102.684 5.47467 102.396 5.592C102.119 5.70933 101.863 5.85333 101.628 6.024C101.404 6.19467 101.201 6.35467 101.02 6.504C100.935 6.57867 100.876 6.65333 100.844 6.728C100.812 6.792 100.796 6.87733 100.796 6.984V12.744C100.796 12.9147 100.716 13 100.556 13H99.6601C99.5961 13 99.5428 12.984 99.5001 12.952C99.4681 12.9093 99.4521 12.856 99.4521 12.792V7.08C99.4521 6.55733 99.3295 6.152 99.0841 5.864C98.8388 5.56533 98.4495 5.416 97.9161 5.416C97.4681 5.416 97.0575 5.52267 96.6841 5.736C96.3108 5.94933 95.8841 6.27467 95.4041 6.712V12.76C95.4041 12.92 95.3241 13 95.1641 13H94.2841ZM109.904 12.728C109.904 12.8347 109.883 12.9093 109.84 12.952C109.808 12.984 109.733 13 109.616 13H108.8C108.704 13 108.64 12.984 108.608 12.952C108.576 12.92 108.56 12.8613 108.56 12.776V4.744C108.56 4.59467 108.624 4.52 108.752 4.52H109.728C109.845 4.52 109.904 4.58933 109.904 4.728V12.728ZM109.968 2.696C109.968 2.89867 109.872 3 109.68 3H108.752C108.656 3 108.592 2.97867 108.56 2.936C108.528 2.88267 108.512 2.81333 108.512 2.728V1.384C108.512 1.21333 108.587 1.128 108.736 1.128H109.744C109.893 1.128 109.968 1.208 109.968 1.368V2.696ZM115.908 4.36C116.463 4.36 116.948 4.45067 117.364 4.632C117.791 4.80267 118.154 5.04267 118.452 5.352C118.762 5.65067 119.018 5.98133 119.22 6.344C119.284 6.472 119.258 6.552 119.14 6.584L118.26 6.792C118.186 6.824 118.116 6.792 118.052 6.696C117.839 6.38667 117.626 6.136 117.412 5.944C117.21 5.752 116.991 5.608 116.756 5.512C116.522 5.40533 116.266 5.352 115.988 5.352C115.444 5.352 114.964 5.49067 114.548 5.768C114.143 6.03467 113.828 6.424 113.604 6.936C113.38 7.448 113.268 8.056 113.268 8.76C113.268 9.47467 113.38 10.088 113.604 10.6C113.839 11.112 114.159 11.5013 114.564 11.768C114.98 12.0347 115.466 12.168 116.02 12.168C116.532 12.168 116.975 12.04 117.348 11.784C117.722 11.528 118.063 11.1547 118.372 10.664C118.404 10.6107 118.431 10.584 118.452 10.584C118.484 10.5733 118.527 10.5787 118.58 10.6L119.268 10.856C119.343 10.888 119.364 10.9573 119.332 11.064C119.172 11.3413 118.986 11.608 118.772 11.864C118.559 12.12 118.308 12.344 118.02 12.536C117.743 12.728 117.428 12.8827 117.076 13C116.724 13.1067 116.335 13.16 115.908 13.16C115.119 13.16 114.42 12.9787 113.812 12.616C113.215 12.2427 112.746 11.7307 112.404 11.08C112.063 10.4187 111.892 9.656 111.892 8.792C111.892 7.91733 112.063 7.14933 112.404 6.488C112.756 5.82667 113.231 5.30933 113.828 4.936C114.436 4.552 115.13 4.36 115.908 4.36Z" fill="#6C6C6C"/>
</svg>
