<svg width="114" height="16" viewBox="0 0 114 16" fill="none" xmlns="http://www.w3.org/2000/svg">
<path d="M7.968 3.336C7.69067 3.00533 7.33333 2.72267 6.896 2.488C6.45867 2.25333 5.90933 2.136 5.248 2.136C4.448 2.136 3.81867 2.312 3.36 2.664C2.90133 3.016 2.672 3.50667 2.672 4.136C2.672 4.30667 2.70933 4.504 2.784 4.728C2.86933 4.952 3.03467 5.17067 3.28 5.384C3.52533 5.59733 3.89333 5.78933 4.384 5.96L6.704 6.728C7.67467 7.048 8.36267 7.47467 8.768 8.008C9.17333 8.53067 9.376 9.14933 9.376 9.864C9.376 10.5467 9.20533 11.1387 8.864 11.64C8.52267 12.1307 8.03733 12.5093 7.408 12.776C6.77867 13.032 6.02133 13.16 5.136 13.16C4.496 13.16 3.904 13.0853 3.36 12.936C2.816 12.776 2.33067 12.552 1.904 12.264C1.488 11.9653 1.13067 11.5973 0.832 11.16C0.778667 11.0853 0.757333 11.0213 0.768 10.968C0.789333 10.904 0.842667 10.84 0.928 10.776L1.504 10.376C1.61067 10.312 1.69067 10.28 1.744 10.28C1.808 10.28 1.86133 10.312 1.904 10.376C2.192 10.7387 2.47467 11.0427 2.752 11.288C3.02933 11.5227 3.34933 11.6987 3.712 11.816C4.08533 11.9333 4.53867 11.992 5.072 11.992C5.91467 11.992 6.59733 11.8427 7.12 11.544C7.64267 11.2347 7.904 10.728 7.904 10.024C7.904 9.75733 7.85067 9.51733 7.744 9.304C7.63733 9.08 7.456 8.87733 7.2 8.696C6.944 8.504 6.576 8.31733 6.096 8.136L3.664 7.304C3.07733 7.10133 2.60267 6.84 2.24 6.52C1.87733 6.2 1.61067 5.848 1.44 5.464C1.28 5.08 1.2 4.68533 1.2 4.28C1.2 3.608 1.37067 3.02667 1.712 2.536C2.05333 2.03467 2.52267 1.65067 3.12 1.384C3.728 1.10667 4.43733 0.967999 5.248 0.967999C5.792 0.967999 6.288 1.032 6.736 1.16C7.19467 1.288 7.61067 1.46933 7.984 1.704C8.368 1.93867 8.704 2.22133 8.992 2.552C9.03467 2.59467 9.06133 2.64267 9.072 2.696C9.08267 2.74933 9.056 2.80267 8.992 2.856L8.256 3.432C8.20267 3.464 8.16 3.47467 8.128 3.464C8.096 3.44267 8.04267 3.4 7.968 3.336ZM12.378 9.288C12.378 9.81067 12.5007 10.2907 12.746 10.728C13.002 11.1547 13.338 11.496 13.754 11.752C14.1807 12.008 14.6553 12.136 15.178 12.136C15.7113 12.136 16.186 12.0293 16.602 11.816C17.018 11.592 17.3753 11.256 17.674 10.808C17.7167 10.7653 17.7487 10.744 17.77 10.744C17.802 10.7333 17.8447 10.7387 17.898 10.76L18.57 11.096C18.666 11.1493 18.6767 11.224 18.602 11.32C18.314 11.7467 17.994 12.0987 17.642 12.376C17.3007 12.6427 16.9167 12.84 16.49 12.968C16.0633 13.096 15.5833 13.16 15.05 13.16C14.2607 13.16 13.562 12.9787 12.954 12.616C12.346 12.2533 11.866 11.7467 11.514 11.096C11.162 10.4453 10.986 9.69333 10.986 8.84C10.986 7.912 11.162 7.11733 11.514 6.456C11.8767 5.784 12.362 5.26667 12.97 4.904C13.5887 4.54133 14.2767 4.36 15.034 4.36C15.8127 4.36 16.49 4.53067 17.066 4.872C17.642 5.21333 18.09 5.70933 18.41 6.36C18.73 7.01067 18.89 7.79467 18.89 8.712C18.89 8.78667 18.8793 8.86133 18.858 8.936C18.8473 9.01067 18.778 9.048 18.65 9.048H12.522C12.4793 9.048 12.442 9.07467 12.41 9.128C12.3887 9.17067 12.378 9.224 12.378 9.288ZM17.274 8.168C17.3913 8.168 17.466 8.15733 17.498 8.136C17.53 8.104 17.546 8.04 17.546 7.944C17.546 7.48533 17.4447 7.05867 17.242 6.664C17.05 6.25867 16.7673 5.93333 16.394 5.688C16.0313 5.44267 15.5887 5.32 15.066 5.32C14.49 5.32 14.0047 5.45867 13.61 5.736C13.2153 6.00267 12.9167 6.35467 12.714 6.792C12.5113 7.22933 12.41 7.688 12.41 8.168H17.274ZM22.8314 5.528C22.746 5.528 22.7034 5.57067 22.7034 5.656V10.728C22.7034 11.2293 22.7887 11.5653 22.9594 11.736C23.13 11.9067 23.386 11.992 23.7274 11.992H24.8314C24.8847 11.992 24.9274 12.008 24.9594 12.04C24.9914 12.0613 25.0074 12.104 25.0074 12.168L24.9914 12.712C24.9914 12.8187 24.9274 12.888 24.7994 12.92C24.6927 12.9413 24.538 12.9573 24.3354 12.968C24.1434 12.9787 23.9514 12.9893 23.7594 13C23.578 13 23.4234 13 23.2954 13C22.6234 13 22.1327 12.8453 21.8234 12.536C21.514 12.216 21.3594 11.7147 21.3594 11.032V5.688C21.3594 5.58133 21.306 5.528 21.1994 5.528H19.9194C19.802 5.528 19.7434 5.46933 19.7434 5.352V4.68C19.7434 4.57333 19.7967 4.52 19.9034 4.52H21.2634C21.338 4.52 21.3754 4.47733 21.3754 4.392L21.5514 1.848C21.562 1.70933 21.6207 1.64 21.7274 1.64H22.5274C22.6554 1.64 22.7194 1.71467 22.7194 1.864V4.392C22.7194 4.47733 22.762 4.52 22.8474 4.52H24.8634C24.9807 4.52 25.0394 4.568 25.0394 4.664V5.352C25.0394 5.46933 24.9807 5.528 24.8634 5.528H22.8314ZM35.0808 13.16C34.0354 13.16 33.1288 12.9253 32.3608 12.456C31.6034 11.9867 31.0221 11.304 30.6168 10.408C30.2114 9.50133 30.0088 8.40267 30.0088 7.112C30.0088 5.81067 30.2168 4.70133 30.6328 3.784C31.0488 2.86667 31.6354 2.168 32.3928 1.688C33.1501 1.208 34.0514 0.967999 35.0968 0.967999C36.1421 0.967999 37.0381 1.208 37.7847 1.688C38.5421 2.168 39.1234 2.86133 39.5288 3.768C39.9448 4.67467 40.1528 5.784 40.1528 7.096C40.1528 8.38667 39.9501 9.48533 39.5448 10.392C39.1394 11.288 38.5528 11.976 37.7847 12.456C37.0274 12.9253 36.1261 13.16 35.0808 13.16ZM35.1128 11.992C36.2648 11.992 37.1234 11.5973 37.6888 10.808C38.2648 10.008 38.5528 8.776 38.5528 7.112C38.5528 5.416 38.2594 4.16267 37.6728 3.352C37.0968 2.54133 36.2381 2.136 35.0968 2.136C33.9448 2.136 33.0754 2.54667 32.4888 3.368C31.9021 4.17867 31.6088 5.42667 31.6088 7.112C31.6088 8.76533 31.9021 9.992 32.4888 10.792C33.0754 11.592 33.9501 11.992 35.1128 11.992ZM46.7075 4.52C46.7608 4.52 46.7982 4.536 46.8195 4.568C46.8515 4.6 46.8675 4.63733 46.8675 4.68V5.368C46.8675 5.47467 46.8142 5.528 46.7075 5.528H44.8835C44.7982 5.528 44.7555 5.57067 44.7555 5.656V12.776C44.7555 12.9253 44.6915 13 44.5635 13H43.5875C43.4702 13 43.4115 12.9307 43.4115 12.792V5.64C43.4115 5.56533 43.3742 5.528 43.2995 5.528H41.7315C41.6248 5.528 41.5715 5.47467 41.5715 5.368V4.68C41.5715 4.63733 41.5822 4.6 41.6035 4.568C41.6355 4.536 41.6835 4.52 41.7475 4.52H43.2675C43.3635 4.52 43.4115 4.46667 43.4115 4.36V3.192C43.4115 2.52 43.5768 2.008 43.9075 1.656C44.2382 1.304 44.7395 1.128 45.4115 1.128H46.7395C46.8782 1.128 46.9475 1.192 46.9475 1.32V1.944C46.9475 1.99733 46.9315 2.04 46.8995 2.072C46.8782 2.09333 46.8355 2.104 46.7715 2.104H45.6515C45.3208 2.104 45.0808 2.21067 44.9315 2.424C44.7928 2.62667 44.7235 2.904 44.7235 3.256V4.376C44.7235 4.472 44.7715 4.52 44.8675 4.52H46.7075ZM60.8479 4.584C60.8479 5.37333 60.6665 6.024 60.3039 6.536C59.9412 7.048 59.4452 7.42667 58.8159 7.672C58.1865 7.91733 57.4559 8.04 56.6239 8.04H53.9039C53.8079 8.04 53.7599 8.088 53.7599 8.184V12.76C53.7599 12.92 53.6799 13 53.5199 13H52.4319C52.3572 13 52.3039 12.984 52.2719 12.952C52.2399 12.92 52.2239 12.8667 52.2239 12.792V1.352C52.2239 1.20267 52.2879 1.128 52.4159 1.128H56.4479C57.2905 1.128 58.0425 1.24533 58.7039 1.48C59.3652 1.71467 59.8879 2.088 60.2719 2.6C60.6559 3.112 60.8479 3.77333 60.8479 4.584ZM59.2799 4.536C59.2799 3.992 59.1572 3.55467 58.9119 3.224C58.6772 2.89333 58.3412 2.65867 57.9039 2.52C57.4772 2.37067 56.9652 2.296 56.3679 2.296H53.9679C53.8292 2.296 53.7599 2.36 53.7599 2.488V6.648C53.7599 6.79733 53.8079 6.872 53.9039 6.872H56.4799C57.3225 6.872 57.9999 6.68533 58.5119 6.312C59.0239 5.93867 59.2799 5.34667 59.2799 4.536ZM65.6746 13.16C64.8746 13.16 64.1653 12.9787 63.5466 12.616C62.9386 12.2427 62.464 11.7307 62.1226 11.08C61.792 10.4187 61.6266 9.66133 61.6266 8.808C61.6266 7.92267 61.7973 7.14933 62.1386 6.488C62.4906 5.816 62.9706 5.29333 63.5786 4.92C64.1866 4.54667 64.8906 4.36 65.6906 4.36C66.5013 4.36 67.2053 4.552 67.8026 4.936C68.4106 5.30933 68.88 5.832 69.2106 6.504C69.552 7.16533 69.7226 7.928 69.7226 8.792C69.7226 9.64533 69.552 10.4027 69.2106 11.064C68.8693 11.7147 68.3946 12.2267 67.7866 12.6C67.1893 12.9733 66.4853 13.16 65.6746 13.16ZM65.7066 12.152C66.2613 12.152 66.736 12.0187 67.1306 11.752C67.5253 11.4747 67.824 11.0853 68.0266 10.584C68.24 10.072 68.3466 9.464 68.3466 8.76C68.3466 8.056 68.24 7.45333 68.0266 6.952C67.8133 6.44 67.5093 6.04533 67.1146 5.768C66.72 5.49067 66.2453 5.352 65.6906 5.352C65.1466 5.352 64.672 5.49067 64.2666 5.768C63.8613 6.04533 63.5466 6.44 63.3226 6.952C63.1093 7.45333 63.0026 8.056 63.0026 8.76C63.0026 9.45333 63.1093 10.056 63.3226 10.568C63.5466 11.08 63.8613 11.4747 64.2666 11.752C64.672 12.0187 65.152 12.152 65.7066 12.152ZM73.7376 5.528C73.6523 5.528 73.6096 5.57067 73.6096 5.656V10.728C73.6096 11.2293 73.695 11.5653 73.8656 11.736C74.0363 11.9067 74.2923 11.992 74.6336 11.992H75.7376C75.791 11.992 75.8336 12.008 75.8656 12.04C75.8976 12.0613 75.9136 12.104 75.9136 12.168L75.8976 12.712C75.8976 12.8187 75.8336 12.888 75.7056 12.92C75.599 12.9413 75.4443 12.9573 75.2416 12.968C75.0496 12.9787 74.8576 12.9893 74.6656 13C74.4843 13 74.3296 13 74.2016 13C73.5296 13 73.039 12.8453 72.7296 12.536C72.4203 12.216 72.2656 11.7147 72.2656 11.032V5.688C72.2656 5.58133 72.2123 5.528 72.1056 5.528H70.8256C70.7083 5.528 70.6496 5.46933 70.6496 5.352V4.68C70.6496 4.57333 70.703 4.52 70.8096 4.52H72.1696C72.2443 4.52 72.2816 4.47733 72.2816 4.392L72.4576 1.848C72.4683 1.70933 72.527 1.64 72.6336 1.64H73.4336C73.5616 1.64 73.6256 1.71467 73.6256 1.864V4.392C73.6256 4.47733 73.6683 4.52 73.7536 4.52H75.7696C75.887 4.52 75.9456 4.568 75.9456 4.664V5.352C75.9456 5.46933 75.887 5.528 75.7696 5.528H73.7376ZM79.9251 5.528C79.8398 5.528 79.7971 5.57067 79.7971 5.656V10.728C79.7971 11.2293 79.8825 11.5653 80.0531 11.736C80.2238 11.9067 80.4798 11.992 80.8211 11.992H81.9251C81.9785 11.992 82.0211 12.008 82.0531 12.04C82.0851 12.0613 82.1011 12.104 82.1011 12.168L82.0851 12.712C82.0851 12.8187 82.0211 12.888 81.8931 12.92C81.7865 12.9413 81.6318 12.9573 81.4291 12.968C81.2371 12.9787 81.0451 12.9893 80.8531 13C80.6718 13 80.5171 13 80.3891 13C79.7171 13 79.2265 12.8453 78.9171 12.536C78.6078 12.216 78.4531 11.7147 78.4531 11.032V5.688C78.4531 5.58133 78.3998 5.528 78.2931 5.528H77.0131C76.8958 5.528 76.8371 5.46933 76.8371 5.352V4.68C76.8371 4.57333 76.8905 4.52 76.9971 4.52H78.3571C78.4318 4.52 78.4691 4.47733 78.4691 4.392L78.6451 1.848C78.6558 1.70933 78.7145 1.64 78.8211 1.64H79.6211C79.7491 1.64 79.8131 1.71467 79.8131 1.864V4.392C79.8131 4.47733 79.8558 4.52 79.9411 4.52H81.9571C82.0745 4.52 82.1331 4.568 82.1331 4.664V5.352C82.1331 5.46933 82.0745 5.528 81.9571 5.528H79.9251ZM84.5655 9.288C84.5655 9.81067 84.6882 10.2907 84.9335 10.728C85.1895 11.1547 85.5255 11.496 85.9415 11.752C86.3682 12.008 86.8428 12.136 87.3655 12.136C87.8988 12.136 88.3735 12.0293 88.7895 11.816C89.2055 11.592 89.5628 11.256 89.8615 10.808C89.9042 10.7653 89.9362 10.744 89.9575 10.744C89.9895 10.7333 90.0322 10.7387 90.0855 10.76L90.7575 11.096C90.8535 11.1493 90.8642 11.224 90.7895 11.32C90.5015 11.7467 90.1815 12.0987 89.8295 12.376C89.4882 12.6427 89.1042 12.84 88.6775 12.968C88.2508 13.096 87.7708 13.16 87.2375 13.16C86.4482 13.16 85.7495 12.9787 85.1415 12.616C84.5335 12.2533 84.0535 11.7467 83.7015 11.096C83.3495 10.4453 83.1735 9.69333 83.1735 8.84C83.1735 7.912 83.3495 7.11733 83.7015 6.456C84.0642 5.784 84.5495 5.26667 85.1575 4.904C85.7762 4.54133 86.4642 4.36 87.2215 4.36C88.0002 4.36 88.6775 4.53067 89.2535 4.872C89.8295 5.21333 90.2775 5.70933 90.5975 6.36C90.9175 7.01067 91.0775 7.79467 91.0775 8.712C91.0775 8.78667 91.0668 8.86133 91.0455 8.936C91.0348 9.01067 90.9655 9.048 90.8375 9.048H84.7095C84.6668 9.048 84.6295 9.07467 84.5975 9.128C84.5762 9.17067 84.5655 9.224 84.5655 9.288ZM89.4615 8.168C89.5788 8.168 89.6535 8.15733 89.6855 8.136C89.7175 8.104 89.7335 8.04 89.7335 7.944C89.7335 7.48533 89.6322 7.05867 89.4295 6.664C89.2375 6.25867 88.9548 5.93333 88.5815 5.688C88.2188 5.44267 87.7762 5.32 87.2535 5.32C86.6775 5.32 86.1922 5.45867 85.7975 5.736C85.4028 6.00267 85.1042 6.35467 84.9015 6.792C84.6988 7.22933 84.5975 7.688 84.5975 8.168H89.4615ZM93.1904 13C93.1157 13 93.057 12.984 93.0144 12.952C92.9824 12.9093 92.9664 12.856 92.9664 12.792V4.728C92.9664 4.58933 93.025 4.52 93.1424 4.52H94.0704C94.1877 4.52 94.2464 4.57867 94.2464 4.696V5.736C94.2464 5.8 94.2624 5.83733 94.2944 5.848C94.3264 5.85867 94.369 5.83733 94.4224 5.784C94.6997 5.45333 94.9717 5.18667 95.2384 4.984C95.5157 4.77067 95.793 4.616 96.0704 4.52C96.3477 4.41333 96.625 4.36 96.9024 4.36C97.2757 4.36 97.4624 4.42933 97.4624 4.568V5.528C97.4624 5.63467 97.4144 5.67733 97.3184 5.656C97.2224 5.64533 97.1104 5.63467 96.9824 5.624C96.865 5.61333 96.737 5.608 96.5984 5.608C96.3637 5.608 96.113 5.66133 95.8464 5.768C95.5797 5.864 95.329 6.00267 95.0944 6.184C94.8704 6.36533 94.6837 6.568 94.5344 6.792C94.385 7.016 94.3104 7.24 94.3104 7.464V12.76C94.3104 12.92 94.2304 13 94.0704 13H93.1904ZM99.5554 15.64C99.246 15.64 99.006 15.6293 98.8354 15.608C98.6647 15.5867 98.5794 15.528 98.5794 15.432V14.808C98.5794 14.7333 98.606 14.68 98.6594 14.648C98.7234 14.616 98.846 14.6 99.0274 14.6H100.035C100.27 14.6 100.483 14.52 100.675 14.36C100.867 14.2107 101.027 14.0187 101.155 13.784C101.283 13.5493 101.369 13.3093 101.411 13.064C101.454 12.8293 101.438 12.6213 101.363 12.44L98.3074 4.792C98.286 4.71733 98.286 4.65333 98.3074 4.6C98.3394 4.54667 98.398 4.52 98.4834 4.52H99.4754C99.5394 4.52 99.5927 4.536 99.6354 4.568C99.678 4.58933 99.71 4.632 99.7314 4.696L102.115 10.904C102.158 11 102.206 11.048 102.259 11.048C102.313 11.048 102.361 10.984 102.403 10.856L104.755 4.696C104.787 4.632 104.819 4.58933 104.851 4.568C104.883 4.536 104.926 4.52 104.979 4.52H105.731C105.806 4.52 105.859 4.54667 105.891 4.6C105.923 4.64267 105.923 4.696 105.891 4.76L102.371 13.752C102.222 14.136 102.057 14.4507 101.875 14.696C101.694 14.9413 101.486 15.128 101.251 15.256C101.027 15.3947 100.777 15.4907 100.499 15.544C100.222 15.608 99.9074 15.64 99.5554 15.64ZM112.414 6.392C112.2 6.072 111.902 5.81067 111.518 5.608C111.134 5.40533 110.675 5.304 110.142 5.304C109.566 5.304 109.086 5.42667 108.702 5.672C108.328 5.91733 108.142 6.248 108.142 6.664C108.142 6.888 108.227 7.10133 108.398 7.304C108.568 7.496 108.915 7.67733 109.438 7.848L111.47 8.456C112.206 8.65867 112.734 8.952 113.054 9.336C113.384 9.72 113.55 10.1627 113.55 10.664C113.55 11.1653 113.4 11.6027 113.102 11.976C112.803 12.3493 112.392 12.6427 111.87 12.856C111.347 13.0587 110.755 13.16 110.094 13.16C109.251 13.16 108.515 12.9947 107.886 12.664C107.256 12.3227 106.808 11.9013 106.542 11.4C106.51 11.3467 106.494 11.2987 106.494 11.256C106.494 11.2133 106.52 11.176 106.574 11.144L107.198 10.792C107.251 10.76 107.299 10.7493 107.342 10.76C107.384 10.76 107.416 10.776 107.438 10.808C107.619 11.0853 107.827 11.3253 108.062 11.528C108.307 11.7307 108.595 11.8907 108.926 12.008C109.267 12.1253 109.662 12.184 110.11 12.184C110.515 12.1733 110.883 12.1147 111.214 12.008C111.544 11.9013 111.806 11.7467 111.998 11.544C112.19 11.3307 112.286 11.0853 112.286 10.808C112.286 10.52 112.168 10.2747 111.934 10.072C111.699 9.85867 111.294 9.672 110.718 9.512L109.07 9.048C108.27 8.83467 107.704 8.54667 107.374 8.184C107.054 7.82133 106.888 7.39467 106.878 6.904C106.878 6.392 107.016 5.94933 107.294 5.576C107.571 5.192 107.955 4.89333 108.446 4.68C108.947 4.46667 109.518 4.36 110.158 4.36C110.872 4.36 111.507 4.49867 112.062 4.776C112.627 5.04267 113.054 5.4 113.342 5.848C113.374 5.89067 113.39 5.93333 113.39 5.976C113.39 6.008 113.368 6.04 113.326 6.072L112.654 6.44C112.611 6.46133 112.568 6.472 112.526 6.472C112.494 6.46133 112.456 6.43467 112.414 6.392Z" fill="#6C6C6C"/>
</svg>
