<svg width="112" height="16" viewBox="0 0 112 16" fill="none" xmlns="http://www.w3.org/2000/svg">
<path d="M7.968 3.336C7.69067 3.00533 7.33333 2.72267 6.896 2.488C6.45867 2.25333 5.90933 2.136 5.248 2.136C4.448 2.136 3.81867 2.312 3.36 2.664C2.90133 3.016 2.672 3.50667 2.672 4.136C2.672 4.30667 2.70933 4.504 2.784 4.728C2.86933 4.952 3.03467 5.17067 3.28 5.384C3.52533 5.59733 3.89333 5.78933 4.384 5.96L6.704 6.728C7.67467 7.048 8.36267 7.47467 8.768 8.008C9.17333 8.53067 9.376 9.14933 9.376 9.864C9.376 10.5467 9.20533 11.1387 8.864 11.64C8.52267 12.1307 8.03733 12.5093 7.408 12.776C6.77867 13.032 6.02133 13.16 5.136 13.16C4.496 13.16 3.904 13.0853 3.36 12.936C2.816 12.776 2.33067 12.552 1.904 12.264C1.488 11.9653 1.13067 11.5973 0.832 11.16C0.778667 11.0853 0.757333 11.0213 0.768 10.968C0.789333 10.904 0.842667 10.84 0.928 10.776L1.504 10.376C1.61067 10.312 1.69067 10.28 1.744 10.28C1.808 10.28 1.86133 10.312 1.904 10.376C2.192 10.7387 2.47467 11.0427 2.752 11.288C3.02933 11.5227 3.34933 11.6987 3.712 11.816C4.08533 11.9333 4.53867 11.992 5.072 11.992C5.91467 11.992 6.59733 11.8427 7.12 11.544C7.64267 11.2347 7.904 10.728 7.904 10.024C7.904 9.75733 7.85067 9.51733 7.744 9.304C7.63733 9.08 7.456 8.87733 7.2 8.696C6.944 8.504 6.576 8.31733 6.096 8.136L3.664 7.304C3.07733 7.10133 2.60267 6.84 2.24 6.52C1.87733 6.2 1.61067 5.848 1.44 5.464C1.28 5.08 1.2 4.68533 1.2 4.28C1.2 3.608 1.37067 3.02667 1.712 2.536C2.05333 2.03467 2.52267 1.65067 3.12 1.384C3.728 1.10667 4.43733 0.967999 5.248 0.967999C5.792 0.967999 6.288 1.032 6.736 1.16C7.19467 1.288 7.61067 1.46933 7.984 1.704C8.368 1.93867 8.704 2.22133 8.992 2.552C9.03467 2.59467 9.06133 2.64267 9.072 2.696C9.08267 2.74933 9.056 2.80267 8.992 2.856L8.256 3.432C8.20267 3.464 8.16 3.47467 8.128 3.464C8.096 3.44267 8.04267 3.4 7.968 3.336ZM18.362 4.52C18.4473 4.52 18.506 4.54133 18.538 4.584C18.5807 4.616 18.602 4.68533 18.602 4.792V15.432C18.602 15.5707 18.538 15.64 18.41 15.64H17.434C17.3167 15.64 17.258 15.5707 17.258 15.432V12.488C17.258 12.36 17.242 12.2853 17.21 12.264C17.178 12.2427 17.114 12.2747 17.018 12.36C16.7407 12.5733 16.3993 12.76 15.994 12.92C15.5887 13.08 15.1407 13.16 14.65 13.16C13.9033 13.16 13.258 12.9787 12.714 12.616C12.17 12.2533 11.7487 11.7413 11.45 11.08C11.162 10.4187 11.018 9.63467 11.018 8.728C11.018 7.85333 11.162 7.09067 11.45 6.44C11.738 5.77867 12.154 5.26667 12.698 4.904C13.2527 4.54133 13.914 4.36 14.682 4.36C15.226 4.36 15.6687 4.42933 16.01 4.568C16.3513 4.70667 16.6233 4.86667 16.826 5.048C17.0393 5.21867 17.2047 5.368 17.322 5.496C17.418 5.60267 17.4767 5.58667 17.498 5.448L17.61 4.776C17.6313 4.68 17.658 4.616 17.69 4.584C17.7327 4.54133 17.802 4.52 17.898 4.52H18.362ZM17.258 7.384C17.258 7.02133 17.1567 6.68533 16.954 6.376C16.762 6.056 16.4953 5.8 16.154 5.608C15.8233 5.40533 15.4393 5.304 15.002 5.304C14.522 5.304 14.0847 5.42667 13.69 5.672C13.2953 5.91733 12.9807 6.296 12.746 6.808C12.5113 7.30933 12.394 7.944 12.394 8.712C12.394 9.45867 12.506 10.0933 12.73 10.616C12.954 11.128 13.2633 11.5173 13.658 11.784C14.0527 12.0507 14.506 12.184 15.018 12.184C15.4447 12.184 15.85 12.0933 16.234 11.912C16.6287 11.7307 16.97 11.48 17.258 11.16V7.384ZM23.9401 12.104C24.3988 12.104 24.8361 11.9813 25.2521 11.736C25.6788 11.48 26.1001 11.1387 26.5161 10.712V4.76C26.5161 4.6 26.6015 4.52 26.7721 4.52H27.6521C27.8015 4.52 27.8761 4.59467 27.8761 4.744L27.8441 12.792C27.8441 12.9307 27.7855 13 27.6681 13H26.7401C26.6228 13 26.5641 12.9413 26.5641 12.824V11.88C26.5641 11.8267 26.5535 11.7947 26.5321 11.784C26.5108 11.7733 26.4735 11.7893 26.4201 11.832C25.8335 12.3333 25.3108 12.68 24.8521 12.872C24.4041 13.064 23.9561 13.16 23.5081 13.16C23.0175 13.16 22.5801 13.0587 22.1961 12.856C21.8121 12.6533 21.5081 12.3707 21.2841 12.008C21.0601 11.6347 20.9481 11.2027 20.9481 10.712V4.776C20.9481 4.60533 21.0281 4.52 21.1881 4.52H22.0841C22.2228 4.52 22.2921 4.59467 22.2921 4.744V10.36C22.2921 10.8827 22.4361 11.304 22.7241 11.624C23.0228 11.944 23.4281 12.104 23.9401 12.104ZM35.2058 11.976C34.8111 12.36 34.3791 12.6533 33.9098 12.856C33.4511 13.0587 32.9338 13.16 32.3578 13.16C31.5258 13.16 30.8698 12.9467 30.3898 12.52C29.9204 12.0933 29.6858 11.5333 29.6858 10.84C29.6858 10.2747 29.8458 9.78933 30.1658 9.384C30.4858 8.968 30.9604 8.64267 31.5898 8.408C32.2191 8.16267 32.9924 8.01333 33.9098 7.96L35.1578 7.864C35.2218 7.85333 35.2804 7.832 35.3338 7.8C35.3871 7.768 35.4138 7.70933 35.4138 7.624V7.192C35.4138 6.616 35.2324 6.16267 34.8698 5.832C34.5178 5.49067 34.0378 5.32 33.4298 5.32C32.9604 5.32 32.5338 5.42667 32.1498 5.64C31.7764 5.85333 31.4404 6.17333 31.1418 6.6C31.0991 6.65333 31.0618 6.69067 31.0298 6.712C31.0084 6.72267 30.9658 6.71733 30.9018 6.696L30.0378 6.408C30.0058 6.38667 29.9791 6.36 29.9578 6.328C29.9471 6.296 29.9631 6.23733 30.0058 6.152C30.3258 5.59733 30.7738 5.16 31.3498 4.84C31.9364 4.52 32.6511 4.36 33.4938 4.36C34.2084 4.36 34.8004 4.472 35.2698 4.696C35.7498 4.90933 36.1071 5.224 36.3418 5.64C36.5871 6.04533 36.7098 6.53067 36.7098 7.096V12.76C36.7098 12.856 36.6938 12.92 36.6618 12.952C36.6298 12.984 36.5764 13 36.5018 13H35.6858C35.6111 13 35.5578 12.9787 35.5258 12.936C35.4938 12.8827 35.4724 12.8187 35.4618 12.744L35.4458 12.008C35.4138 11.8587 35.3338 11.848 35.2058 11.976ZM35.4138 8.936C35.4138 8.75467 35.3391 8.66933 35.1898 8.68L34.1338 8.776C33.6431 8.79733 33.2058 8.86133 32.8218 8.968C32.4378 9.064 32.1124 9.192 31.8458 9.352C31.5791 9.512 31.3764 9.704 31.2378 9.928C31.0991 10.1413 31.0298 10.392 31.0298 10.68C31.0298 11.1493 31.1898 11.5173 31.5098 11.784C31.8404 12.04 32.2831 12.168 32.8378 12.168C33.1791 12.168 33.5044 12.1093 33.8138 11.992C34.1338 11.864 34.4111 11.704 34.6458 11.512C34.8911 11.3093 35.0778 11.1013 35.2058 10.888C35.3444 10.6747 35.4138 10.4667 35.4138 10.264V8.936ZM39.3154 13C39.2407 13 39.182 12.984 39.1394 12.952C39.1074 12.9093 39.0914 12.856 39.0914 12.792V4.728C39.0914 4.58933 39.15 4.52 39.2674 4.52H40.1954C40.3127 4.52 40.3714 4.57867 40.3714 4.696V5.736C40.3714 5.8 40.3874 5.83733 40.4194 5.848C40.4514 5.85867 40.494 5.83733 40.5474 5.784C40.8247 5.45333 41.0967 5.18667 41.3634 4.984C41.6407 4.77067 41.918 4.616 42.1954 4.52C42.4727 4.41333 42.75 4.36 43.0274 4.36C43.4007 4.36 43.5874 4.42933 43.5874 4.568V5.528C43.5874 5.63467 43.5394 5.67733 43.4434 5.656C43.3474 5.64533 43.2354 5.63467 43.1074 5.624C42.99 5.61333 42.862 5.608 42.7234 5.608C42.4887 5.608 42.238 5.66133 41.9714 5.768C41.7047 5.864 41.454 6.00267 41.2194 6.184C40.9954 6.36533 40.8087 6.568 40.6594 6.792C40.51 7.016 40.4354 7.24 40.4354 7.464V12.76C40.4354 12.92 40.3554 13 40.1954 13H39.3154ZM45.9093 9.288C45.9093 9.81067 46.0319 10.2907 46.2773 10.728C46.5333 11.1547 46.8693 11.496 47.2853 11.752C47.7119 12.008 48.1866 12.136 48.7093 12.136C49.2426 12.136 49.7173 12.0293 50.1333 11.816C50.5493 11.592 50.9066 11.256 51.2053 10.808C51.2479 10.7653 51.2799 10.744 51.3013 10.744C51.3333 10.7333 51.3759 10.7387 51.4293 10.76L52.1013 11.096C52.1973 11.1493 52.2079 11.224 52.1333 11.32C51.8453 11.7467 51.5253 12.0987 51.1733 12.376C50.8319 12.6427 50.4479 12.84 50.0213 12.968C49.5946 13.096 49.1146 13.16 48.5813 13.16C47.7919 13.16 47.0933 12.9787 46.4853 12.616C45.8773 12.2533 45.3973 11.7467 45.0453 11.096C44.6933 10.4453 44.5173 9.69333 44.5173 8.84C44.5173 7.912 44.6933 7.11733 45.0453 6.456C45.4079 5.784 45.8933 5.26667 46.5013 4.904C47.1199 4.54133 47.8079 4.36 48.5653 4.36C49.3439 4.36 50.0213 4.53067 50.5973 4.872C51.1733 5.21333 51.6213 5.70933 51.9413 6.36C52.2613 7.01067 52.4213 7.79467 52.4213 8.712C52.4213 8.78667 52.4106 8.86133 52.3893 8.936C52.3786 9.01067 52.3093 9.048 52.1813 9.048H46.0533C46.0106 9.048 45.9733 9.07467 45.9413 9.128C45.9199 9.17067 45.9093 9.224 45.9093 9.288ZM50.8053 8.168C50.9226 8.168 50.9973 8.15733 51.0293 8.136C51.0613 8.104 51.0773 8.04 51.0773 7.944C51.0773 7.48533 50.9759 7.05867 50.7733 6.664C50.5813 6.25867 50.2986 5.93333 49.9253 5.688C49.5626 5.44267 49.1199 5.32 48.5973 5.32C48.0213 5.32 47.5359 5.45867 47.1413 5.736C46.7466 6.00267 46.4479 6.35467 46.2453 6.792C46.0426 7.22933 45.9413 7.688 45.9413 8.168H50.8053ZM66.676 4.584C66.676 5.37333 66.4947 6.024 66.132 6.536C65.7693 7.048 65.2733 7.42667 64.644 7.672C64.0147 7.91733 63.284 8.04 62.452 8.04H59.732C59.636 8.04 59.588 8.088 59.588 8.184V12.76C59.588 12.92 59.508 13 59.348 13H58.26C58.1853 13 58.132 12.984 58.1 12.952C58.068 12.92 58.052 12.8667 58.052 12.792V1.352C58.052 1.20267 58.116 1.128 58.244 1.128H62.276C63.1187 1.128 63.8707 1.24533 64.532 1.48C65.1933 1.71467 65.716 2.088 66.1 2.6C66.484 3.112 66.676 3.77333 66.676 4.584ZM65.108 4.536C65.108 3.992 64.9853 3.55467 64.74 3.224C64.5053 2.89333 64.1693 2.65867 63.732 2.52C63.3053 2.37067 62.7933 2.296 62.196 2.296H59.796C59.6573 2.296 59.588 2.36 59.588 2.488V6.648C59.588 6.79733 59.636 6.872 59.732 6.872H62.308C63.1507 6.872 63.828 6.68533 64.34 6.312C64.852 5.93867 65.108 5.34667 65.108 4.536ZM71.5028 13.16C70.7028 13.16 69.9934 12.9787 69.3748 12.616C68.7668 12.2427 68.2921 11.7307 67.9508 11.08C67.6201 10.4187 67.4548 9.66133 67.4548 8.808C67.4548 7.92267 67.6254 7.14933 67.9668 6.488C68.3188 5.816 68.7988 5.29333 69.4068 4.92C70.0148 4.54667 70.7188 4.36 71.5188 4.36C72.3294 4.36 73.0334 4.552 73.6308 4.936C74.2388 5.30933 74.7081 5.832 75.0388 6.504C75.3801 7.16533 75.5508 7.928 75.5508 8.792C75.5508 9.64533 75.3801 10.4027 75.0388 11.064C74.6974 11.7147 74.2228 12.2267 73.6148 12.6C73.0174 12.9733 72.3134 13.16 71.5028 13.16ZM71.5348 12.152C72.0894 12.152 72.5641 12.0187 72.9588 11.752C73.3534 11.4747 73.6521 11.0853 73.8548 10.584C74.0681 10.072 74.1748 9.464 74.1748 8.76C74.1748 8.056 74.0681 7.45333 73.8548 6.952C73.6414 6.44 73.3374 6.04533 72.9428 5.768C72.5481 5.49067 72.0734 5.352 71.5188 5.352C70.9748 5.352 70.5001 5.49067 70.0948 5.768C69.6894 6.04533 69.3748 6.44 69.1508 6.952C68.9374 7.45333 68.8307 8.056 68.8307 8.76C68.8307 9.45333 68.9374 10.056 69.1508 10.568C69.3748 11.08 69.6894 11.4747 70.0948 11.752C70.5001 12.0187 70.9801 12.152 71.5348 12.152ZM79.5658 5.528C79.4804 5.528 79.4378 5.57067 79.4378 5.656V10.728C79.4378 11.2293 79.5231 11.5653 79.6938 11.736C79.8644 11.9067 80.1204 11.992 80.4618 11.992H81.5658C81.6191 11.992 81.6618 12.008 81.6938 12.04C81.7258 12.0613 81.7418 12.104 81.7418 12.168L81.7258 12.712C81.7258 12.8187 81.6618 12.888 81.5338 12.92C81.4271 12.9413 81.2724 12.9573 81.0698 12.968C80.8778 12.9787 80.6858 12.9893 80.4938 13C80.3124 13 80.1578 13 80.0298 13C79.3578 13 78.8671 12.8453 78.5578 12.536C78.2484 12.216 78.0938 11.7147 78.0938 11.032V5.688C78.0938 5.58133 78.0404 5.528 77.9338 5.528H76.6538C76.5364 5.528 76.4778 5.46933 76.4778 5.352V4.68C76.4778 4.57333 76.5311 4.52 76.6378 4.52H77.9978C78.0724 4.52 78.1098 4.47733 78.1098 4.392L78.2858 1.848C78.2964 1.70933 78.3551 1.64 78.4618 1.64H79.2618C79.3898 1.64 79.4538 1.71467 79.4538 1.864V4.392C79.4538 4.47733 79.4964 4.52 79.5818 4.52H81.5978C81.7151 4.52 81.7738 4.568 81.7738 4.664V5.352C81.7738 5.46933 81.7151 5.528 81.5978 5.528H79.5658ZM85.7533 5.528C85.6679 5.528 85.6253 5.57067 85.6253 5.656V10.728C85.6253 11.2293 85.7106 11.5653 85.8813 11.736C86.0519 11.9067 86.3079 11.992 86.6493 11.992H87.7533C87.8066 11.992 87.8493 12.008 87.8813 12.04C87.9133 12.0613 87.9293 12.104 87.9293 12.168L87.9133 12.712C87.9133 12.8187 87.8493 12.888 87.7213 12.92C87.6146 12.9413 87.4599 12.9573 87.2573 12.968C87.0653 12.9787 86.8733 12.9893 86.6813 13C86.4999 13 86.3453 13 86.2173 13C85.5453 13 85.0546 12.8453 84.7453 12.536C84.4359 12.216 84.2812 11.7147 84.2812 11.032V5.688C84.2812 5.58133 84.2279 5.528 84.1213 5.528H82.8413C82.7239 5.528 82.6653 5.46933 82.6653 5.352V4.68C82.6653 4.57333 82.7186 4.52 82.8253 4.52H84.1853C84.2599 4.52 84.2973 4.47733 84.2973 4.392L84.4733 1.848C84.4839 1.70933 84.5426 1.64 84.6493 1.64H85.4493C85.5773 1.64 85.6413 1.71467 85.6413 1.864V4.392C85.6413 4.47733 85.6839 4.52 85.7693 4.52H87.7853C87.9026 4.52 87.9613 4.568 87.9613 4.664V5.352C87.9613 5.46933 87.9026 5.528 87.7853 5.528H85.7533ZM90.3936 9.288C90.3936 9.81067 90.5163 10.2907 90.7616 10.728C91.0176 11.1547 91.3536 11.496 91.7696 11.752C92.1963 12.008 92.671 12.136 93.1936 12.136C93.727 12.136 94.2016 12.0293 94.6176 11.816C95.0336 11.592 95.391 11.256 95.6896 10.808C95.7323 10.7653 95.7643 10.744 95.7856 10.744C95.8176 10.7333 95.8603 10.7387 95.9136 10.76L96.5856 11.096C96.6816 11.1493 96.6923 11.224 96.6176 11.32C96.3296 11.7467 96.0096 12.0987 95.6576 12.376C95.3163 12.6427 94.9323 12.84 94.5056 12.968C94.079 13.096 93.599 13.16 93.0656 13.16C92.2763 13.16 91.5776 12.9787 90.9696 12.616C90.3616 12.2533 89.8816 11.7467 89.5296 11.096C89.1776 10.4453 89.0016 9.69333 89.0016 8.84C89.0016 7.912 89.1776 7.11733 89.5296 6.456C89.8923 5.784 90.3776 5.26667 90.9856 4.904C91.6043 4.54133 92.2923 4.36 93.0496 4.36C93.8283 4.36 94.5056 4.53067 95.0816 4.872C95.6576 5.21333 96.1056 5.70933 96.4256 6.36C96.7456 7.01067 96.9056 7.79467 96.9056 8.712C96.9056 8.78667 96.895 8.86133 96.8736 8.936C96.863 9.01067 96.7936 9.048 96.6656 9.048H90.5376C90.495 9.048 90.4576 9.07467 90.4256 9.128C90.4043 9.17067 90.3936 9.224 90.3936 9.288ZM95.2896 8.168C95.407 8.168 95.4816 8.15733 95.5136 8.136C95.5456 8.104 95.5616 8.04 95.5616 7.944C95.5616 7.48533 95.4603 7.05867 95.2576 6.664C95.0656 6.25867 94.783 5.93333 94.4096 5.688C94.047 5.44267 93.6043 5.32 93.0816 5.32C92.5056 5.32 92.0203 5.45867 91.6256 5.736C91.231 6.00267 90.9323 6.35467 90.7296 6.792C90.527 7.22933 90.4256 7.688 90.4256 8.168H95.2896ZM99.0185 13C98.9438 13 98.8852 12.984 98.8425 12.952C98.8105 12.9093 98.7945 12.856 98.7945 12.792V4.728C98.7945 4.58933 98.8532 4.52 98.9705 4.52H99.8985C100.016 4.52 100.075 4.57867 100.075 4.696V5.736C100.075 5.8 100.091 5.83733 100.123 5.848C100.155 5.85867 100.197 5.83733 100.251 5.784C100.528 5.45333 100.8 5.18667 101.067 4.984C101.344 4.77067 101.621 4.616 101.899 4.52C102.176 4.41333 102.453 4.36 102.731 4.36C103.104 4.36 103.291 4.42933 103.291 4.568V5.528C103.291 5.63467 103.243 5.67733 103.147 5.656C103.051 5.64533 102.939 5.63467 102.811 5.624C102.693 5.61333 102.565 5.608 102.427 5.608C102.192 5.608 101.941 5.66133 101.674 5.768C101.408 5.864 101.157 6.00267 100.923 6.184C100.699 6.36533 100.512 6.568 100.363 6.792C100.213 7.016 100.139 7.24 100.139 7.464V12.76C100.139 12.92 100.059 13 99.8985 13H99.0185ZM105.384 15.64C105.074 15.64 104.834 15.6293 104.664 15.608C104.493 15.5867 104.408 15.528 104.408 15.432V14.808C104.408 14.7333 104.434 14.68 104.488 14.648C104.552 14.616 104.674 14.6 104.856 14.6H105.864C106.098 14.6 106.312 14.52 106.504 14.36C106.696 14.2107 106.856 14.0187 106.984 13.784C107.112 13.5493 107.197 13.3093 107.24 13.064C107.282 12.8293 107.266 12.6213 107.192 12.44L104.136 4.792C104.114 4.71733 104.114 4.65333 104.136 4.6C104.168 4.54667 104.226 4.52 104.312 4.52H105.304C105.368 4.52 105.421 4.536 105.464 4.568C105.506 4.58933 105.538 4.632 105.56 4.696L107.944 10.904C107.986 11 108.034 11.048 108.088 11.048C108.141 11.048 108.189 10.984 108.232 10.856L110.584 4.696C110.616 4.632 110.648 4.58933 110.68 4.568C110.712 4.536 110.754 4.52 110.808 4.52H111.56C111.634 4.52 111.688 4.54667 111.72 4.6C111.752 4.64267 111.752 4.696 111.72 4.76L108.2 13.752C108.05 14.136 107.885 14.4507 107.704 14.696C107.522 14.9413 107.314 15.128 107.08 15.256C106.856 15.3947 106.605 15.4907 106.328 15.544C106.05 15.608 105.736 15.64 105.384 15.64Z" fill="#6C6C6C"/>
</svg>
